<svg version="1.1" xmlns="http://www.w3.org/2000/svg" xmlns:xlink="http://www.w3.org/1999/xlink">
<defs>
<g id="ill">
	<g>
		<path fill="hsl(var(--icon-secondary-color))" d="M55,33H26.2c1.1-6,6.3-11,12.4-11h1c-0.5-1-0.7-2.7-0.7-4.2c0-7.3,5.9-13.2,13.2-13.2
			c2.6,0,5,0.8,7,2.1c2.9-3.5,7.2-5.7,12-5.7c8.6,0,15.5,7,15.5,15.5c0,2.1-0.4,4.1-1.2,6c5.5,1.3,9.6,6.2,9.6,12.1
			C95,41.5,89.4,47,82.5,47H55V33z"/>
		<path class="svg-primary" fill="hsl(var(--icon-primary-color))" d="M10,35.8v-6c0-1.1,0.9-2,2-2h0c1.1,0,2,0.9,2,2v6c0,1.1-0.9,2-2,2h0C10.9,37.8,10,36.9,10,35.8z M19,37.8
			L19,37.8c1.1,0,2-0.9,2-2v-6c0-1.1-0.9-2-2-2h0c-1.1,0-2,0.9-2,2v6C17,36.9,17.9,37.8,19,37.8z M47,38c1.2,0,2-0.9,2-2v-6
			c0-1.1-0.9-2-2-2s-2,0.9-2,2v6C45,37.1,45.8,38,47,38z M26,51.8L26,51.8c1.1,0,2-0.9,2-2v-6c0-1.1-0.9-2-2-2h0c-1.1,0-2,0.9-2,2v6
			C24,50.9,24.9,51.8,26,51.8z M34,51.8L34,51.8c1.1,0,2-0.9,2-2v-6c0-1.1-0.9-2-2-2h0c-1.1,0-2,0.9-2,2v6
			C32,50.9,32.9,51.8,34,51.8z M47,51.8L47,51.8c1.1,0,2-0.9,2-2v-6c0-1.1-0.9-2-2-2h0c-1.1,0-2,0.9-2,2v6
			C45,50.9,45.9,51.8,47,51.8z M47,65.8L47,65.8c1.1,0,2-0.9,2-2v-6c0-1.1-0.9-2-2-2h0c-1.1,0-2,0.9-2,2v6
			C45,64.9,45.9,65.8,47,65.8z M39,65.8L39,65.8c1.1,0,2-0.9,2-2v-6c0-1.1-0.9-2-2-2h0c-1.1,0-2,0.9-2,2v6
			C37,64.9,37.9,65.8,39,65.8z M30,65.8L30,65.8c1.1,0,2-0.9,2-2v-6c0-1.1-0.9-2-2-2h0c-1.1,0-2,0.9-2,2v6
			C28,64.9,28.9,65.8,30,65.8z M20,65.8L20,65.8c1.1,0,2-0.9,2-2v-6c0-1.1-0.9-2-2-2h0c-1.1,0-2,0.9-2,2v6
			C18,64.9,18.9,65.8,20,65.8z M61,89H1v6h60V89z M36,71.8c0-1.1-0.9-2-2-2c-0.5,0-1,0.2-1.4,0.6c-0.4,0.4-0.6,0.9-0.6,1.4V75v2.8
			c0,1.1,0.9,2,2,2s2-0.9,2-2V75V71.8z M49,71.8c0-1.1-0.9-2-2-2c-0.5,0-1,0.2-1.4,0.6c-0.4,0.4-0.6,0.9-0.6,1.4V75v2.8
			c0,1.1,0.9,2,2,2s2-0.9,2-2V75V71.8z M28,71.8c0-1.1-0.9-2-2-2c-0.5,0-1,0.2-1.4,0.6c-0.4,0.4-0.6,0.9-0.6,1.4V75v2.8
			c0,1.1,0.9,2,2,2s2-0.9,2-2V75V71.8z"/>
	</g>
	<path stroke-width="var(--icon-edge-width)" d="M61,95H1v-6h60V95z M44,33 M21,33 M26,33c0-5.8,6.4-11,12.5-11h1c-0.5-1-0.7-2.7-0.7-4.2
		c0-7.3,5.9-13.1,13.2-13.1c2.6,0,5,0.7,7,2c2.9-3.5,7.2-5.7,12-5.7c8.6,0,15.5,6.9,15.5,15.5c0,2.1-0.4,4.1-1.2,5.9
		c5.5,1.3,9.6,6.2,9.6,12.1C95,41.5,89.4,47,82.5,47H55h0 M10,35.8v-6c0-1.1,0.9-2,2-2h0c1.1,0,2,0.9,2,2v6c0,1.1-0.9,2-2,2h0
		C10.9,37.8,10,36.9,10,35.8z M19,37.8L19,37.8c1.1,0,2-0.9,2-2v-6c0-1.1-0.9-2-2-2h0c-1.1,0-2,0.9-2,2v6C17,36.9,17.9,37.8,19,37.8
		z M47,37.8L47,37.8c1.1,0,2-0.9,2-2v-6c0-1.1-0.9-2-2-2h0c-1.1,0-2,0.9-2,2v6C45,36.9,45.9,37.8,47,37.8z M26,51.8L26,51.8
		c1.1,0,2-0.9,2-2v-6c0-1.1-0.9-2-2-2h0c-1.1,0-2,0.9-2,2v6C24,50.9,24.9,51.8,26,51.8z M34,51.8L34,51.8c1.1,0,2-0.9,2-2v-6
		c0-1.1-0.9-2-2-2h0c-1.1,0-2,0.9-2,2v6C32,50.9,32.9,51.8,34,51.8z M47,51.8L47,51.8c1.1,0,2-0.9,2-2v-6c0-1.1-0.9-2-2-2h0
		c-1.1,0-2,0.9-2,2v6C45,50.9,45.9,51.8,47,51.8z M26,79.8L26,79.8c1.1,0,2-0.9,2-2v-6c0-1.1-0.9-2-2-2h0c-1.1,0-2,0.9-2,2v6
		C24,78.9,24.9,79.8,26,79.8z M34,79.8L34,79.8c1.1,0,2-0.9,2-2v-6c0-1.1-0.9-2-2-2h0c-1.1,0-2,0.9-2,2v6C32,78.9,32.9,79.8,34,79.8
		z M47,79.8L47,79.8c1.1,0,2-0.9,2-2v-6c0-1.1-0.9-2-2-2h0c-1.1,0-2,0.9-2,2v6C45,78.9,45.9,79.8,47,79.8z M47,65.8L47,65.8
		c1.1,0,2-0.9,2-2v-6c0-1.1-0.9-2-2-2h0c-1.1,0-2,0.9-2,2v6C45,64.9,45.9,65.8,47,65.8z M39,65.8L39,65.8c1.1,0,2-0.9,2-2v-6
		c0-1.1-0.9-2-2-2h0c-1.1,0-2,0.9-2,2v6C37,64.9,37.9,65.8,39,65.8z M30,65.8L30,65.8c1.1,0,2-0.9,2-2v-6c0-1.1-0.9-2-2-2h0
		c-1.1,0-2,0.9-2,2v6C28,64.9,28.9,65.8,30,65.8z M20,65.8L20,65.8c1.1,0,2-0.9,2-2v-6c0-1.1-0.9-2-2-2h0c-1.1,0-2,0.9-2,2v6
		C18,64.9,18.9,65.8,20,65.8z"/>
	<path stroke-width="2px" d="M7,19v70 M55,19v70 M49,61h6 M41,61h4 M32,61h5 M22,61h6 M7,61H6.9H18 M49,47h6 M36,47h9 M28,47h4
		 M7,47H6.9H24 M49,33h6 M21,33h24 M14,33h3 M7,33h3 M49,75h6 M36,75h9 M28,75h4 M7,75H6.9H24"/>
</g>
</defs>
</svg>
