<svg version="1.1" xmlns="http://www.w3.org/2000/svg" xmlns:xlink="http://www.w3.org/1999/xlink">
<defs>
<g id="ill">
	<g>
		<path fill="hsl(var(--icon-primary-color))" d="M79,27.3c-6.1,0-11,4.9-11,11c0,6.1,11,21.5,11,21.5s11-15.4,11-21.5
		C90,32.2,85.1,27.3,79,27.3z M79,43c-2.6,0-4.7-2.1-4.7-4.7s2.1-4.7,4.7-4.7s4.7,2.1,4.7,4.7S81.6,43,79,43z"/>
		<path fill="hsla(var(--icon-primary-color), 0.2)" d="M95,16v57l-32,8l-30-8L1,81V24l32-8l30,8L95,16z"/>
	</g>
	<path stroke-width="var(--icon-edge-width)" d="M95,73V16l-32,8l-30-8L1,24v57l32-8l30,8L95,73z M90,38.2c0,6.1-11,21.5-11,21.5
		S68,44.3,68,38.2c0-6.1,4.9-11,11-11S90,32.2,90,38.2z M83.7,38.2c0-2.6-2.1-4.7-4.7-4.7s-4.7,2.1-4.7,4.7S76.4,43,79,43
		S83.7,40.8,83.7,38.2z"/>
	<path stroke-width="2px" d="M33,16v40v17 M63,24v40v17 M22,59l-6,2l-6,2 M33,56l-8,2 M38,57.3l8,2.1 M58,62.7l-8-2.1 M71,62
		l-8,2 M79,60l-4,1 M13,67l3-6l3-6 M22,64l-12-6"
		/>


</g>
</defs>
</svg>
