<svg version="1.1" xmlns="http://www.w3.org/2000/svg" xmlns:xlink="http://www.w3.org/1999/xlink">
<defs>
<g id="ill">
	<g>
		<path fill="hsl(var(--icon-primary-color))" d="M85,61H1V22c0-3.9,3.1-7,7-7h70c3.8,0,7,3.1,7,7V61z"/>
		<path fill="hsla(var(--icon-primary-color), 0.2)" d="M1,61v8c0,3.9,3.1,7,7,7h29c0,0,0,0,0,0c0,5.3-4.4,11-9.6,11h-3.8c-2.9,0-3.3,2-3.4,4h45.9
		c-0.1-2-0.5-4-3.4-4H59c-5.2,0-10-5.7-10-11c0,0,0,0,0,0h29c3.8,0,7-3.2,7-7v-8H1z"/>
	</g>
	<path stroke-width="var(--icon-edge-width)" d="M66.2,91h-46c0.1-2,0.5-4,3.4-4h3.8c5.2,0,9.6-5.7,9.6-11c0,0,12,0,12,0c0,5.3,4.8,11,10,11
		h3.8C65.7,87,66.1,89,66.2,91z M1,61v8c0,3.9,3.1,7,7,7h70c3.8,0,7-3.2,7-7v-8 M85,22c0-3.9-3.1-7-7-7H8c-3.9,0-7,3.1-7,7v39h84V22
		z"/>
	<path stroke-width="2px" d="M9,45h14 M9,39h28 M9,33h28 M93.1,8.4l-4.4,4.4 M95,17h-4 M85,6v5 M27,87h15 M44,87h3 M43,66
		c-1.7,0-3,1.3-3,3s1.3,3,3,3s3-1.3,3-3S44.7,66,43,66z"
		/>


</g>
</defs>
</svg>
