<svg version="1.1"  xmlns="http://www.w3.org/2000/svg" xmlns:xlink="http://www.w3.org/1999/xlink">
<g id="ill">
	<g>
		<path class="svg-white" fill="hsla(var(--icon-primary-color), 0.2)" d="M89,16.9c-2.6,0-5,2.1-5,5v18.3c0,3.9-3.1,6.7-7,6.7c-4.4,0-7-2.4-7-6.7V16.9H89z M51,10v7.9h3
				c2.7,0,4,2.1,4,4.7v56.3c0,2.6-1.9,5.1-4.5,5.1H21.6C19,84,17,81.5,17,78.9V22.6c0-2.7,2-4.6,4.6-4.6H24v-7.8C24,5.1,27.9,1,33,1
				c2.5,0,21.4,0,27,0h0.8C55.1,1,51,4.5,51,10z M29,65h-7v7h7V65z M29,54h-7v7h7V54z M41,65h-7v7h7V65z M41,54h-7v7h7V54z M53,65
				h-7v7h7V65z M53,54h-7v7h7V54z M22,41v9h31v-9H22z"/>
		<path class="svg-secondary" fill="hsl(var(--icon-secondary-color))" d="M94,21.9v18l-2-1l-2,1l-2-1l-2,1l-2-1V22c0-3.4,2.7-5.1,5-5.1S94,19,94,21.9z M70,40.2V10.1
				c0-5-4-9.1-9-9.2c-0.1,0-0.1,0-0.2,0c-5.7,0-9.8,3.5-9.8,9v8h9c2.6,0,5,2.1,5,4.6v24.4h12C72.6,46.9,70,44.5,70,40.2z"/>
		<path class="svg-primary" fill="hsl(var(--icon-primary-color))" d="M46,65h7v7h-7V65z M46,61h7v-7h-7V61z M41,54h-7v7h7V54z M34,72h7v-7h-7V72z M29,54h-7v7h7V54z
				 M22,50h31v-9H22V50z M29,65h-7v7h7V65z M45,84h-5h-5h-5h-6v6.4c0,2.5,2.1,4.6,4.7,4.6H40h5h1c2.5,0,5.1-2,5.1-4.6V84H51H45z
				 M60,17.9h-6c2.7,0,4,2.1,4,4.7v56.3c0,2.6-1.9,5.1-4.5,5.1h6.9c2.7,0,4.6-2.5,4.6-5.1V47.5V47V22.6C65,19.9,62.6,17.9,60,17.9z"/>
	</g>
	<path stroke-width="var(--icon-edge-width)" d="M54,17.9h6c2.6,0,5,2,5,4.7v24.9v31.4c0,2.6-1.9,5.1-4.6,5.1H51 M24,18h-2.4
			C19,18,17,19.9,17,22.6v56.3c0,2.6,2,5.1,4.6,5.1H24 M51,84h2.5c2.6,0,4.5-2.5,4.5-5.1V22.6c0-2.6-1.3-4.7-4-4.7h-3 M60,1h1 M60,1
			c-5.6,0-24.5,0-27,0c-5.1,0-9,4.1-9,9.2V34 M89,16.9c-2.8,0.2-5,2.2-5,5.1v18.3c0,3.9-3.1,6.7-7,6.7c-4.4,0-7-2.4-7-6.7V10.2
			C70,5.1,65.9,1,60.8,1C55.1,1,51,4.5,51,10v24 M84,38.9l2,1l2-1l2,1l2-1l2,1v-18c0-2.9-2.2-4.8-5-5H70 M77,47H65 M22,41v9h31v-9
			H22z M53,54h-7v7h7V54z M41,54h-7v7h7V54z M22,54v7h7v-7H22z M53,65h-7v7h7V65z M41,65h-7v7h7V65z M22,65v7h7v-7H22z M24,84v6.4
			c0,2.5,2.1,4.6,4.7,4.6H46c2.5,0,5.1-2,5.1-4.6V84H24z"/>
			<path stroke-width="2px" d="M21,34h33 M45,95V84 M40,84v11 M35,84v6 M30,84v6"/>
</g>
</svg>
