<svg version="1.1" xmlns="http://www.w3.org/2000/svg" xmlns:xlink="http://www.w3.org/1999/xlink">
<defs>
<g id="ill">
	<g>
		<path fill="hsl(var(--icon-primary-color))" d="M70.7,74c-5.1,0-9.9-3.3-9.9-10c0-6.1,4.4-10,9.9-10H89v-9c0-5.3-3.7-10-9-10H18l18-18H15.2
		c-5,0-9.2,2.3-9.2,9.1v56.2c0,5.3,4.6,9.7,9.8,9.7h63C84.1,92,89,87.3,89,82v-8H70.7z"/>
		<path fill="hsla(var(--icon-primary-color), 0.7)" d="M89,54H70.7c-5.5,0-9.9,3.9-9.9,10c0,6.7,4.8,10,9.9,10H89"/>
		<path fill="hsl(var(--icon-secondary-color))" d="M71.7,59.1c2.6,0,4.7,2.1,4.7,4.7s-2.1,4.7-4.7,4.7c-2.6,0-4.7-2.1-4.7-4.7S69.1,59.1,71.7,59.1z"/>
		<path fill="hsla(var(--icon-primary-color), 0.2)" d="M87,28l-7,7H17.7L48.6,4.3l8,8l8-8L87,28z"/>
	</g>
	<path stroke-width="var(--icon-edge-width)" d="M80,35c5.3,0,9,4.7,9,10v37c0,5.3-4.9,10-10.2,10h-63C10.6,92,6,87.6,6,82.3V25 M88,54H70.7
		c-5.5,0-9.9,3.9-9.9,10c0,6.7,4.8,10,9.9,10H88 M36,17H15.2c-5,0-9.2,2.3-9.2,9.1c0,5.1,3.2,8.9,9,8.9h5 M71.7,59.1
		c-2.6,0-4.7,2.1-4.7,4.7s2.1,4.7,4.7,4.7c2.6,0,4.7-2.1,4.7-4.7S74.3,59.1,71.7,59.1z M67,35l6.4-5.8L48.6,4.3L17.7,35H67z M34,35
		h46l7-7L64.7,4.3L57,12"/>
	<path stroke-width="2px" d="M38.4,50.1c0,1.2-1,2.1-2.1,2.1s-2.1-1-2.1-2.1s1-2.1,2.1-2.1S38.4,49,38.4,50.1z M60.8,50.1
		c0,1.2-1,2.1-2.1,2.1c-1.2,0-2.1-1-2.1-2.1s1-2.1,2.1-2.1C59.9,48,60.8,49,60.8,50.1z M38.7,70.1c2.3,2.5,5.6,4,9.3,4s7-1.6,9.3-4"
		/>


</g>
</defs>
</svg>
