<svg version="1.1" xmlns="http://www.w3.org/2000/svg" xmlns:xlink="http://www.w3.org/1999/xlink">
<defs>
<g id="ill">
	<g>
		<path fill="hsl(var(--icon-primary-color))" d="M41.2,11.8l41,41C70.8,63.4,53,63.2,41.9,52.1S30.6,23.2,41.2,11.8z M67.8,88H47H26.2H16v7
		h64v-7H67.8z"/>
		<path fill="hsla(var(--icon-primary-color), 0.2)" d="M67.8,88H47H26.2l11-23H42l5-8l5,8h4.8L67.8,88z"/>

	</g>

	<path stroke-width="2px" d="M61,33l5.7-5.7 M64.5,25.2l2.1,2.1l2.1,2.1 M80.1,39.4c7-7,7-18.4,0-25.5c-7-7-18.4-7-25.4,0
		 M75.8,35.1c4.7-4.7,4.7-12.3,0-17c-4.7-4.7-12.3-4.7-17,0 M71.6,30.9c2.3-2.3,2.3-6.1,0-8.5c-2.3-2.4-6.1-2.4-8.5,0 M47,65v8.9V88
		 M36,68l32,20 M58,68L26,88"/>

	<path stroke-width="var(--icon-edge-width)" d="M82.2,52.8C70.8,63.4,53,63.2,41.9,52.1s-11.3-28.9-0.7-40.3L82.2,52.8z M80,88H16v7h64V88z
		 M67.8,88l-11-23H37.2l-11,23 M52,65l-5-8l-5,8H52z"/>
</g>
</defs>
</svg>
