<?xml version="1.0" encoding="utf-8"?>
<svg version="1.1" xmlns="http://www.w3.org/2000/svg" xmlns:xlink="http://www.w3.org/1999/xlink">
<g id="ill">
	<g>
		<path class="svg-white" fill="hsla(var(--icon-primary-color), 0.2)" d="M1,46h26h68v50H1V46z M30,92V82H20v10H30z"/>
		<path class="svg-secondary" fill="hsl(var(--icon-secondary-color))" d="M19,66v10h12V66H19z M30,82v10H20V82H30z M31,61v-9.9H19V61H31z M7,18c0-1.1,0.9-2,2-2s2,0.9,2,2s-0.9,2-2,2S7,19.1,7,18z
			 M57,7c0-1.1,0.9-2,2-2s2,0.9,2,2s-0.9,2-2,2S57,8.1,57,7z M53,27c0-1.1,0.9-2,2-2s2,0.9,2,2s-0.9,2-2,2S53,28.1,53,27z M84,19
			c0-1.1,0.9-2,2-2s2,0.9,2,2s-0.9,2-2,2S84,20.1,84,19z M93,36H27H3c-1.1,0-2,0.9-2,2v8h26h68v-8C95,36.9,94.1,36,93,36z M9,43
			c-1.1,0-2-0.9-2-2s0.9-2,2-2s2,0.9,2,2S10.1,43,9,43z M18,43c-1.1,0-2-0.9-2-2s0.9-2,2-2s2,0.9,2,2S19.1,43,18,43z M27,43
			c-1.1,0-2-0.9-2-2s0.9-2,2-2s2,0.9,2,2S28.1,43,27,43z"/>
		<path class="svg-primary" fill="hsl(var(--icon-primary-color))" d="M51,87L37,73c1-1.4,1.8-2.9,2.3-4.5c0.5-1.4,0.7-2.9,0.7-4.5c0-2.4-0.6-4.7-1.6-6.8C35.9,52.3,30.9,49,25,49
			c-8.3,0-15,6.7-15,15c0,1.6,0.2,3.1,0.7,4.5C12.6,74.6,18.3,79,25,79c3.4,0,6.5-1.1,9-3l14,14L51,87z M15.9,68.5
			c-0.7-1.4-1.1-2.9-1.1-4.5c0-3.4,1.6-6.4,4.2-8.2c1.7-1.2,3.7-2,6-2c1.9,0,3.8,0.5,5.3,1.5c2.9,1.8,4.9,5,4.9,8.7
			c0,1.6-0.4,3.2-1.1,4.5c-1.7,3.3-5.1,5.6-9.1,5.6S17.6,71.8,15.9,68.5z"/>
	</g>
	<path stroke-width="var(--icon-edge-width)" d="M95,96V46v-8c0-1.1-0.9-2-2-2H3c-1.1,0-2,0.9-2,2v8v50H95z M1,46h94 M31,72v-6H19v6 M19,56v5h12v-5 M30,82H20
		v10h10V82z M9,39c-1.1,0-2,0.9-2,2s0.9,2,2,2s2-0.9,2-2S10.1,39,9,39z M18,39c-1.1,0-2,0.9-2,2s0.9,2,2,2s2-0.9,2-2S19.1,39,18,39z
		 M27,39c-1.1,0-2,0.9-2,2s0.9,2,2,2s2-0.9,2-2S28.1,39,27,39z M55,25c-1.1,0-2,0.9-2,2s0.9,2,2,2s2-0.9,2-2S56.1,25,55,25z M59,5
		c-1.1,0-2,0.9-2,2s0.9,2,2,2s2-0.9,2-2S60.1,5,59,5z M9,16c-1.1,0-2,0.9-2,2s0.9,2,2,2s2-0.9,2-2S10.1,16,9,16z M86,17
		c-1.1,0-2,0.9-2,2s0.9,2,2,2s2-0.9,2-2S87.1,17,86,17z M51,87L37,73c1-1.4,1.8-2.9,2.3-4.5c0.5-1.4,0.7-2.9,0.7-4.5
		c0-2.4-0.6-4.7-1.6-6.8C35.9,52.3,30.9,49,25,49c-8.3,0-15,6.7-15,15c0,1.6,0.2,3.1,0.7,4.5C12.6,74.6,18.3,79,25,79
		c3.4,0,6.5-1.1,9-3l14,14L51,87z M15.9,68.5c-0.7-1.4-1.1-2.9-1.1-4.5c0-3.4,1.6-6.4,4.2-8.2c1.7-1.2,3.7-2,6-2
		c1.9,0,3.8,0.5,5.3,1.5c2.9,1.8,4.9,5,4.9,8.7c0,1.6-0.4,3.2-1.1,4.5c-1.7,3.3-5.1,5.6-9.1,5.6S17.6,71.8,15.9,68.5z"/>
	<path stroke-width="2px" d="M56.2,56H84 M56.1,71H84 M56.1,86H84 M25,24v6 M18,27l4,4 M32,27l-4,4 M59,9v3 M59,2v3 M57,7h-3 M64,7h-3 M9,20v3
	 M9,13v3 M7,18H4 M14,18h-3"/>
</g>
</svg>
