<svg version="1.1" xmlns="http://www.w3.org/2000/svg" xmlns:xlink="http://www.w3.org/1999/xlink">
<defs>
<g id="ill">
	<g>
		<path fill="hsla(var(--icon-primary-color), 0.2)" d="M20,61l8,8v26H3V61H20z M36,61v34h25V69l-8-8H36z M86,61H69v34h25V69L86,61z"/>
		<path class="svg-white" fill="hsla(var(--icon-primary-color), 0.7)" d="M77,1H15c-2.2,0-4,1.9-4,4.1V9c0,2.3,1.7,4,4,4c-2.3,0-4,1.7-4,4v4c0,2.3,1.7,4,4,4c-2.3,0-4,1.7-4,4v4
		c0,2.3,1.7,4,4,4h62c2.2,0,4-1.8,4-4V5C81,2.8,79.2,1,77,1z"/>
		<path fill="hsl(var(--icon-primary-color))" d="M69,9.9V5.1C69,2.8,67.2,1,64.9,1H15.1C12.8,1,11,2.8,11,5.1v4.8c0,2.3,1.7,3.1,4,3.1
			c-2.3,0-4,1.7-4,4v4c0,2.3,1.7,4,4,4c-2.3,0-4,1.7-4,4v4c0,2.3,1.7,4,4,4h50c2.3,0,4-1.7,4-4v-4c0-2.3-1.7-4-4-4c2.3,0,4-1.7,4-4
			v-4c0-2.3-1.7-4-4-4C67.3,13,69,12.1,69,9.9z"/>
	</g>
	<path stroke-width="2px" d="M73,86h17 M73,81h17 M73,76h17 M40,86h17 M40,81h17 M40,76h17 M7,86h17 M7,81h17 M7,76h17 M59.6,5
		c-1.1,0-2,0.9-2,2s0.9,2,2,2s2-0.9,2-2S60.7,5,59.6,5z M48,7h6 M43,5v4 M36,5v4 M29,5v4 M22,5v4 M15,5v4 M82,61v-7c0-2.7-2.3-5-5-5
		H19c-2.7,0-5,2.3-5,5v7 M48,61V37 M59.6,17c-1.1,0-2,0.9-2,2s0.9,2,2,2s2-0.9,2-2S60.7,17,59.6,17z M48,19h6 M43,17v4 M36,17v4
		 M29,17v4 M22,17v4 M15,17v4 M59.6,29c-1.1,0-2,0.9-2,2c0,1.1,0.9,2,2,2s2-0.9,2-2C61.6,29.9,60.7,29,59.6,29z M48,31h6 M43,29v4
		 M36,29v4 M29,29v4 M22,29v4 M15,29v4"/>
	<path stroke-width="var(--icon-edge-width)" d="M94,69l-8-8H69v34h25V69z M86,61v8h8 M61,69l-8-8H36v34h25V69z M53,61v8h8 M28,69l-8-8H3v34h25V69z
		 M20,61v8h8 M15,1h62c2.2,0,4,1.8,4,4v28c0,2.2-1.8,4-4,4H59 M69,5.1C69,2.8,67.2,1,64.9,1H15.1C12.8,1,11,2.8,11,5.1V9
		c0,2.3,1.7,4,4,4h50c2.3,0,4-1.7,4-4V5.1z M69,17.1c0-2.3-1.8-4.1-4.1-4.1H15.1c-2.3,0-4.1,1.8-4.1,4.1V21c0,2.3,1.7,4,4,4h50
		c2.3,0,4-1.7,4-4V17.1z M69,29.1c0-2.3-1.8-4.1-4.1-4.1H15.1c-2.3,0-4.1,1.8-4.1,4.1V33c0,2.3,1.7,4,4,4h50c2.3,0,4-1.7,4-4V29.1z"
		/>
</g>
</defs>
</svg>
