<svg version="1.1" xmlns="http://www.w3.org/2000/svg" xmlns:xlink="http://www.w3.org/1999/xlink">
<defs>
<g id="ill">
	<g>
		<path fill="hsl(var(--icon-secondary-color))" d="M41,74v-7H19.4H8.1L1,73v13h16c0.1-4,4.4-8,9-8s7.9,4,8,8h35c0.1-4,4-8,9-8c4,0,7.9,4,8,8
		h7V74H41z"/>
		<path fill="hsl(var(--icon-primary-color))" d="M95,36v38H41v-7.3V48.1V48H28V36h13H95z"/>
		<path fill="hsla(var(--icon-primary-color), 0.2)" d="M86,86c0,0,0,0.1,0,0.1c0,0,0,0.1,0,0.1c0,4.6-3.8,8.3-8.4,8.3c-1.5,0-2.9-0.4-4.1-1
			c-1.2,0.7-2.6,1-4,1c-4.6,0-8.4-3.7-8.4-8.3V86h8c0.1-4.5,4-8.1,8.5-8.1C82,77.9,85.9,81.5,86,86z M14.2,48L8,67h33V48H14.2z
			 M25.5,77.9c-4.5,0-8.4,3.6-8.5,8.1c0,0-3.8,0-8,0c0,5.4,4,8.6,8.6,8.6c1.4,0,2.8-0.3,4-0.9c1.2,0.6,2.7,0.9,4.1,0.9
			c4.6,0,8.4-3.8,8.4-8.5C34,81.2,29.9,77.9,25.5,77.9z"/>

	</g>

	<path stroke-width="2px" d="M78.7,10.8l-4.8,10.8 M92.7,20.9l-8.8,7.9 M31,20.9l8.9,8 M49.9,21.8L45,10.8 M62,7v12 M3,95h38
		 M44,95h7 M56,95h37"/>

	<path stroke-width="var(--icon-edge-width)" d="M28,48V36h67v38H41V36 M86,86h7V74 M34,86h27.1H69 M41,48H14.2L8,67l-7,5.9V86h16 M8,67h11.4
		H41 M25,48l-5,19l-7,6v13 M1,73h12 M61.1,86.3c0,4.6,3.8,8.3,8.4,8.3c1.5,0,2.8-0.4,4-1 M9.4,86.3c0,4.6,3.7,8.3,8.4,8.3
		c1.4,0,2.8-0.4,4-1 M25.5,77.9c-4.6,0-8.5,3.7-8.5,8.2c0,0,0,0.1,0,0.1c0,3.2,1.9,5.9,4.6,7.3c1.2,0.6,2.7,1,4.1,1
		c4.6,0,8.3-3.7,8.3-8.3c0,0,0-0.1,0-0.1C34,81.6,30.1,77.9,25.5,77.9z M77.5,77.9c-4.6,0-8.5,3.7-8.5,8.2c0,0,0,0.1,0,0.1
		c0,3.1,1.9,5.9,4.5,7.3c1.2,0.7,2.7,1,4.2,1c4.6,0,8.4-3.7,8.4-8.3c0,0,0-0.1,0-0.1C86,81.6,82.1,77.9,77.5,77.9z"/>
</g>
</defs>
</svg>
