<svg version="1.1" xmlns="http://www.w3.org/2000/svg" xmlns:xlink="http://www.w3.org/1999/xlink">
<defs>
<g id="ill">
	<g>
		<path fill="hsl(var(--icon-primary-color))" d="M31,28c-3.3,0-6,2.7-6,6s6,12,6,12s6-8.7,6-12S34.3,28,31,28z M31,36c-1.1,0-2-0.9-2-2
		c0-1.1,0.9-2,2-2s2,0.9,2,2C33,35.1,32.1,36,31,36z M61,10c0-3.3-2.7-6-6-6s-6,2.7-6,6s6,12,6,12S61,13.3,61,10z M53,10
		c0-1.1,0.9-2,2-2s2,0.9,2,2c0,1.1-0.9,2-2,2S53,11.1,53,10z M88,83v6h-4.3c-0.6-1.8-2.3-3-4.2-3c-2,0-3.7,1-4.3,3H51.8
		c-0.6-2-2.3-3-4.3-3s-3.7,1.3-4.3,3.1L33,89v-7l4-4h21v5H88z M67,46c0,0,6-8.7,6-12s-2.7-6-6-6s-6,2.7-6,6S67,46,67,46z M67,32
		c1.1,0,2,0.9,2,2c0,1.1-0.9,2-2,2s-2-0.9-2-2C65,32.9,65.9,32,67,32z"/>

		<path fill="hsl(var(--icon-secondary-color))" d="M89,60v23H58V68H48v-8H89z"/>
		<path fill="hsla(var(--icon-primary-color), 0.2)" d="M52,90.5c0,2.5-2,4.5-4.5,4.5c-1.4,0-2.6-0.6-3.5-1.6c-0.8,1-2.2,1.6-3.5,1.6
		C38,95,36,93,36,90.5c0-0.5,0.1-1,0.3-1.5l7,0.1c0.6-1.8,2.3-3.1,4.3-3.1C49.8,86,52,87.5,52,90.5z M79.5,86c-2,0-3.7,1-4.3,3h-6.9
		c-0.1,0.2-0.3,1-0.3,1.5c0,2.5,2,4.5,4.5,4.5c1.4,0,2.6-0.6,3.4-1.6l0,0c0.8,1,2.1,1.6,3.5,1.6c2.5,0,4.5-2,4.5-4.5
		C84,87.7,81.6,86,79.5,86z M40.2,68L37,78h21V68H40.2z"/>
	</g>
	<path stroke-width="var(--icon-edge-width)" d="M48,68v-8h41v23H58V60 M83,89h5v-6 M52,89h23 M58,68H40.2L37,78l-4,4v7h10 M37,78h21 M47,68
		l-3,10l-4,3.9V82v7 M33,82h7 M79.5,86C77,86,75,88,75,90.5s2,4.5,4.5,4.5s4.5-2,4.5-4.5S82,86,79.5,86z M68.3,89
		c-0.2,0.5-0.3,1-0.3,1.5c0,2.5,2,4.5,4.5,4.5c1.4,0,2.6-0.6,3.4-1.6 M36.3,89c-0.2,0.5-0.3,1-0.3,1.5c0,2.5,2,4.5,4.5,4.5
		c1.4,0,2.6-0.6,3.4-1.6 M47.5,86C45,86,43,88,43,90.5s2,4.5,4.5,4.5s4.5-2,4.5-4.5S50,86,47.5,86z M69,34c0,1.1-0.9,2-2,2
		s-2-0.9-2-2s0.9-2,2-2S69,32.9,69,34z M67,28c-3.3,0-6,2.7-6,6s6,12,6,12s6-8.7,6-12S70.3,28,67,28z M33,34c0,1.1-0.9,2-2,2
		c-1.1,0-2-0.9-2-2s0.9-2,2-2C32.1,32,33,32.9,33,34z M31,28c-3.3,0-6,2.7-6,6s6,12,6,12s6-8.7,6-12S34.3,28,31,28z M57,10
		c0,1.1-0.9,2-2,2s-2-0.9-2-2s0.9-2,2-2S57,8.9,57,10z M55,4c-3.3,0-6,2.7-6,6s6,12,6,12s6-8.7,6-12S58.3,4,55,4z"/>
	<path stroke-width="2px" d="M14.5,87.7c-0.6-1.5-0.9-3.1-0.9-4.7c0-1.1,0.1-2.1,0.4-3.1 M21.9,71.6
		c-2.7,0.8-4.9,2.5-6.3,4.6 M16.7,91.1c1.7,1.9,4.1,3.2,6.9,3.7 M26,71h8 M36,95h-8 M71,47h-8 M60,95h-8 M48,95h-0.5h-7H40 M72,95
		h-8 M16.2,42.6c1.6,2,3.9,3.5,6.7,4.1 M22.6,23.4c-2.7,0.7-5,2.2-6.6,4.3 M14.2,31.3c-0.4,1.2-0.6,2.4-0.6,3.8
		c0,1.4,0.3,2.8,0.7,4.1 M59,47h-8 M83.5,60c0-0.3,0-0.7,0-1c0-1.2-0.2-2.3-0.5-3.4 M81.3,52c-1.5-2.1-3.8-3.7-6.4-4.5 M63,23h8
		 M27,23h8 M51,23h8 M39,23h8 M35,47h-8 M47,47h-8 M75,23h8"
		/>


</g>
</defs>
</svg>
