<svg version="1.1" xmlns="http://www.w3.org/2000/svg" xmlns:xlink="http://www.w3.org/1999/xlink">
<defs>
<g id="ill">
	<g>
		<path id="white" fill="hsla(var(--icon-primary-color), 0.2)" d="M75,23.5c0-0.3-0.2-0.5-0.5-0.5h-51c-0.3,0-0.5,0.2-0.5,0.5v63c0,0.3,0.2,0.5,0.5,0.5h51
			c0.3,0,0.5-0.2,0.5-0.5V23.5z"/>
		<path id="secondary" fill="hsl(var(--icon-secondary-color))" d="M83,19c0-3.3-2.7-6-6-6H67v-3h-3.6C62,6,55.8,0.6,48.3,0.6S34.5,6,33.1,10H30v3h-8
			c-3.3,0-6,2.7-6,6v70c0,3.3,2.7,6,6,6h55c3.3,0,6-2.7,6-6V60.7V19z M75,86.5c0,0.3-0.2,0.5-0.5,0.5h-51c-0.3,0-0.5-0.2-0.5-0.5v-63
			c0-0.3,0.2-0.5,0.5-0.5h51c0.3,0,0.5,0.2,0.5,0.5V86.5z"/>
		<path id="primary" fill="hsl(var(--icon-primary-color))" d="M85,50L59,77c-1.6,1.6-4.3,1.7-6,0s-1.6-4.4,0-6l26-27c1.6-1.6,4.5-1.5,6,0S86.6,48.4,85,50z
			 M77.8,62.9c-0.8,0.8-0.8,2,0,2.8c0.8,0.8,2,0.8,2.8,0c0.8-0.8,0.8-2,0-2.8C79.9,62.1,78.6,62.1,77.8,62.9z"/>
	</g>

	<path stroke-width="var(--icon-edge-width)" d="M85,50L59,77c-1.6,1.6-4.3,1.7-6,0s-1.6-4.4,0-6l26-27c1.6-1.6,4.5-1.5,6,0S86.6,48.4,85,50z
		 M51,76l-2,2l3,3l2-2L51,76z M67,13h10c3.3,0,6,2.7,6,6v24 M30,13h-8c-3.3,0-6,2.7-6,6v70c0,3.3,2.7,6,6,6h55c3.3,0,6-2.7,6-6V52
		 M30,23h-6.5c-0.3,0-0.5,0.2-0.5,0.5v63c0,0.3,0.2,0.5,0.5,0.5h51c0.3,0,0.5-0.2,0.5-0.5V60 M75,48V23.5c0-0.3-0.2-0.5-0.5-0.5H67
		 M67,13v-3h-3.6C62,6,55.8,0.6,48.3,0.6S34.5,6,33.1,10H30v3v10h37V13z M79,62c-1.1,0-2,0.9-2,2s0.9,2,2,2s2-0.9,2-2S80.1,62,79,62
		z"/>
	<path stroke-width="2px" d="M45,16h7 M73,50l6,6 M72,57L62,67 M53,77l-6,6 M61,68l-5,5 M79,62l9-8c2.9-2.9,0.8-6-1-8l-2-2
		 M35,49h14 M35,44h28 M35,39h28"/>
</g>
</defs>
</svg>
