<svg version="1.1" xmlns="http://www.w3.org/2000/svg" xmlns:xlink="http://www.w3.org/1999/xlink">
<g id="ill">
	<g>
		<path id="second" class="svg-secondary" fill="hsl(var(--icon-secondary-color))" d="M54.7,80c1.4,1.6,2.3,3.7,2.3,6c0,5-4,9-9,9s-9-4-9-9c0-2.3,0.9-4.4,2.3-6c1.6-1.8,4-3,6.7-3
			S53.1,78.2,54.7,80z M86,77c-2.7,0-5.1,1.2-6.7,3c-1.4,1.6-2.3,3.7-2.3,6c0,5,4,9,9,9s9-4,9-9S91,77,86,77z M7,60v20h20V60H7z"/>
		<path fill="hsla(var(--icon-primary-color), 0.2)" class="svg-white" d="M10,43h17v17H10V43z M63,18c-8.4,0-15.9,5.3-18.8,13.2L32,71h39V18H63z"/>
		<path id="primary" fill="hsl(var(--icon-primary-color))" class="svg-primary" d="M81,56V18H71v53H32V3h-5v77H3v4c0,1.1,0.9,2,2,2h34c0-2.3,0.9-4.4,2.3-6c1.6-1.8,4-3,6.7-3
			s5.1,1.2,6.7,3c1.4,1.6,2.3,3.7,2.3,6h20c0-2.3,0.9-4.4,2.3-6c1.6-1.8,4-3,6.7-3c5,0,9,4,9,9V56H81z"/>
	</g>
	<path stroke-width="var(--icon-edge-width)" d="M71,18h-8c-8.4,0-15.9,5.3-18.8,13.2L32,71 M81,56V18H71v38 M95,80V56H71v15 M32,80v6 M79.3,80
		H54.7 M94.9,86L94.9,86l0.1-6 M55.9,86H57h14.1H77 M7,80H3v4c0,1.1,0.9,2,2,2h34 M41.3,80H32V3h-5v40 M32,71h63 M57,86c0,5-4,9-9,9
		s-9-4-9-9c0-2.3,0.9-4.4,2.3-6c1.6-1.8,4-3,6.7-3s5.1,1.2,6.7,3C56.1,81.6,57,83.7,57,86z M95,86c0,5-4,9-9,9s-9-4-9-9
		c0-2.3,0.9-4.4,2.3-6c1.6-1.8,4-3,6.7-3C91,77,95,81,95,86z M27,60v20H7V60h3 M10,43h17v17H10V43z"/>
	<path stroke-width="2px" d="M48,71V61 M44,61h8 M8,61l18,18 M26,61L8,79 M11,44l15,15 M26,44L11,59 M64,14v-4h4V6h4 M72,14v-4h4
		V6h4V2h4"/>
</g>
</svg>
