<svg version="1.1" xmlns="http://www.w3.org/2000/svg" xmlns:xlink="http://www.w3.org/1999/xlink">
  <symbol id="align-center">
    <path stroke="currentColor" d="M0,20h24 M6,14h12 M0,8h24 M6,2h12"/>
  </symbol>
  <symbol id="align-justified">
    <path stroke="currentColor" d="M0,21l24,0 M0,15l24,0 M0,9h24 M0,3l24,0"/>
  </symbol>
  <symbol id="align-left">
    <path stroke="currentColor" d="M0,15h13 M0,9.1h24 M0,3h13 M0,21h24"/>
  </symbol>
  <symbol id="align-right">
    <path stroke="currentColor" d="M11,15h13 M0,9h24 M11,3h13 M0,21h24"/>
  </symbol>
  <symbol id="apple">
    <path stroke="currentColor" d="M15.6,2c-1.5,0-3.7,1.2-3.6,3.6C15,6,15.9,3.4,15.6,2z M12,7.5c0.3-2.7-1.4-4.5-3.6-4.5 M12,7.5c1.1-0.5,3-1.3,4.9-0.8c5,1.2,4.3,6.9,4,8.7c-0.6,2.8-2.9,6.5-5.2,6.7c-1.5,0.1-3.6-0.9-3.6-0.9s-2.1,1-3.6,0.9c-2.4-0.2-4.7-3.9-5.2-6.7c-0.4-1.8-1.1-7.5,4-8.7C9,6.2,10.9,7,12,7.5z"/>
  </symbol>
  <symbol id="arrow-left">
    <path stroke="currentColor" d="M0,12h22 M12,22l10-10L12,2"/>
  </symbol>
  <symbol id="arrow-right">
    <path stroke="currentColor" d="M24,12H2 M13,2L2,12l11,10"/>
  </symbol>
  <symbol id="arrows">
    <path stroke="currentColor" d="M12,22.6l0-21.1 M8.3,18.9l3.7,3.7l3.7-3.7 M15.7,5.1L12,1.4L8.3,5.1 M1.5,12l21.1,0 M5.1,8.3L1.4,12l3.7,3.7 M18.9,15.7l3.7-3.7l-3.7-3.7"/>
  </symbol>
  <symbol id="arrows-connect">
    <path stroke="currentColor" d="M1.2,22.8L10,14 M10,21v-7H3 M22.8,1.2L14,10 M14,3v7h7"/>
  </symbol>
  <symbol id="arrows-disconnect">
    <path stroke="currentColor" d="M13.2,10.8l8.8-8.9 M22,9V2h-7 M10.8,13.2l-8.8,8.9 M2,15v7h7"/>
  </symbol>
  <symbol id="background">
    <path stroke="currentColor" d="M12,15.4L2.2,8.6L12,1.8l9.8,6.8L12,15.4z M7.1,12l-4.9,3.4l9.8,6.8l9.8-6.8L16.9,12 M12,15.4l4.9,3.4 M14.5,13.7l4.9,3.4 M4.7,13.7l9.8,6.8"/>
  </symbol>
  <symbol id="bars">
    <path stroke="currentColor" d="M2,4h20 M2,12h20 M2,20h20"/>
  </symbol>
  <symbol id="book">
    <path stroke="currentColor" d="M19,4.2C20.5,4.4,21.9,5,23,6c0,5.6,0,10.4,0,16c-3.1-1.9-7.2-1.9-11,0c-3.8-1.9-8-1.8-11,0c0-5.6,0-10.4,0-16c1.1-1,2.5-1.6,4-1.8 M12,5.9V22 M12,6c1.1-3.3,3.6-5,7-5c0,5.6,0,10.4,0,16c-3.3,0-5.8,1.3-7,5 M12,22c-1.2-3.7-3.8-5-7-5C5,11.4,5,6.6,5,1c3.4,0,5.9,1.7,7,5"/>
  </symbol>
  <symbol id="candy">
    <path stroke="currentColor" d="M7.7,16.3L7.7,16.3c-1.8-1.8-1.8-4.7,0-6.5l2-2c1.8-1.8,4.8-1.8,6.6,0l0,0c1.8,1.8,1.8,4.7,0,6.5l-2,2C12.5,18.1,9.6,18.1,7.7,16.3z M17.3,9.3L23,7.5V7.3c-0.4,0-0.8-0.1-1.1-0.5c-1.1-1.1,0.2-2.4-1-3.6c-1.1-1.1-2.5,0.1-3.6-1C16.9,1.8,16.8,1,16.8,1h-0.2l-1.8,5.7 M6.7,14.8L1,16.6v0.2c0,0,0.8,0.1,1.2,0.5c1.1,1.1-0.2,2.4,1,3.6c1.1,1.1,2.5-0.1,3.6,1C7.1,22.2,7.2,23,7.3,23h0.2l1.8-5.7"/>
  </symbol>
  <symbol id="car">
    <path stroke="currentColor" d="M16.4,14.8c-3.3,0-6.6,0-9.2,0 M20.6,14.8c0.8,0,1.6,0,2.4,0c0.1-1.2-0.5-3-2-3.8c-1.2-0.7-3.9-1-4-1c-1.6-1.2-3.7-4.1-7.9-4.1c-1.5,0-3.8,0.9-5.3,2.5 M3.8,8.4c-0.1,0-0.2,0.1-0.2,0.1C3.2,8.7,1,9.5,1,9.5l0,5.2l2,0 M4,8.4c0,0.9,0.1,1.5,0.1,1.5L17,10 M9.5,10.1C9.4,9.1,9.1,7,9,6 M5.1,12.9C3.9,12.9,3,13.8,3,15s0.9,2.1,2.1,2.1s2.1-0.9,2.1-2.1S6.2,12.9,5.1,12.9z M18.5,12.9c-1.2,0-2.1,0.9-2.1,2.1s0.9,2.1,2.1,2.1s2.1-0.9,2.1-2.1S19.6,12.9,18.5,12.9z"/>
  </symbol>
  <symbol id="carot">
    <path stroke="currentColor" d="M14,4.1c1.8-0.8,3.1,0.4,4.1,1.4l0.2,0.2c1,1,2.5,2.5,1.7,4.3C18,14.5,2.1,21.9,2.1,21.9S9.6,6.2,14,4.1z M7.1,12.6L9.5,15 M9.2,9.3l3.1,3.1 M11.5,6.2L15,9.7 M20.2,7.6l3.1-3.1 M22.5,1.4l-4.2,4.2 M19.3,0.8l-3.1,3.1"/>
  </symbol>
  <symbol id="check">
    <path stroke="currentColor" d="M23.3,3L6.2,20.3l-5.5-5.6"/>
  </symbol>
  <symbol id="check-box">
    <path stroke="currentColor" d="M19,21H5c-1.1,0-2-0.9-2-2V5c0-1.1,0.9-2,2-2h14c1.1,0,2,0.9,2,2v14C21,20.1,20.1,21,19,21z M5,12l4,4L19,6"/>
  </symbol>
  <symbol id="check-box-indeterminate">
    <path stroke="currentColor" d="M19,21H5c-1.1,0-2-0.9-2-2V5c0-1.1,0.9-2,2-2h14c1.1,0,2,0.9,2,2v14C21,20.1,20.1,21,19,21z M6,12h12"/>
  </symbol>
  <symbol id="chees">
    <path stroke="currentColor" d="M23,12v10H1V12 M23,12c0-3.3-2.2-6.9-6.5-9.4L1,11.5V12H23z M6,14.7c-1.1,0-2,0.9-2,2s0.9,2,2,2s2-0.9,2-2S7.1,14.7,6,14.7z M13.6,17.5c-1.4,0-2.6,1.4-2.6,2.8c0,0.5,0.2,0.7,0.4,1.7h4.3c0.3-1,0.4-1.1,0.4-1.7C16.2,18.9,15,17.5,13.6,17.5z M17.9,11.7c-0.1,0.4-0.2,0.8-0.2,1.3c0,2,1.6,3.6,3.5,3.6c0.6,0,1.2-0.2,1.8-0.5"/>
  </symbol>
  <symbol id="chevron-down">
    <path stroke="currentColor" d="M23,6L12,17L1,6"/>
  </symbol>
  <symbol id="chevron-left">
    <path stroke="currentColor" d="M18,23L7,12L18,1"/>
  </symbol>
  <symbol id="chevron-right">
    <path stroke="currentColor" d="M7,1l11,11L7,23"/>
  </symbol>
  <symbol id="chevron-top">
    <path stroke="currentColor" d="M1,18L12,7l11,11"/>
  </symbol>
  <symbol id="circle-arrow">
    <path stroke="currentColor" d="M15.8,5.5L22,7V1 M23,12c0,6.1-4.9,11-11,11S1,18.1,1,12S5.9,1,12,1c4.3,0,8,2.4,9.8,6"/>
  </symbol>
  <symbol id="circle-arrows">
    <path stroke="currentColor" d="M5.5,15.8L8,22H1 M23,2h-7l2.6,6.3 M12,1C5.9,1,1,5.9,1,12c0,4.4,2.6,8.3,6.4,10 M12,23c6.1,0,11-4.9,11-11c0-4.3-2.4-8-6-9.8"/>
  </symbol>
  <symbol id="circle-check">
    <path stroke="currentColor" d="M4.9,19.1C1,15.2,1,8.8,4.9,4.9s10.2-3.9,14.1,0s3.9,10.2,0,14.1S8.8,23,4.9,19.1z M5.2,12.6l4.1,4.3l9.5-9.8"/>
  </symbol>
  <symbol id="circle-non">
    <path stroke="currentColor" d="M4.3,19.8C0,15.5,0,8.5,4.3,4.2s11.2-4.3,15.4,0s4.3,11.3,0,15.6S8.5,24.1,4.3,19.8z M5.2,12.6l4.1,4.3l9.5-9.8"/>
  </symbol>
  <symbol id="circle-question">
    <path stroke="currentColor" d="M5,19.1C1,15.2,1,8.8,5,4.9s10.3-3.9,14.1,0s3.9,10.2,0,14.1S8.8,23,5,19.1z M12,15c0-2.6,3-3.8,3-6
		c0-1.7-1-3-3-3c-1.9,0-3,1.3-3,3 M12,17v2"/>
  </symbol>
  <symbol id="circle-user">
    <path stroke="currentColor" d="M4.9,19.1C1,15.2,1,8.8,4.9,4.9s10.2-3.9,14.1,0s3.9,10.2,0,14.1S8.8,23,4.9,19.1z M14.1,14.7v2.5c0,0,4.7,1.7,4.9,1.9 M4.9,19.1c0.2-0.1,4.9-1.9,4.9-1.9v-2.3 M11.9,5.2c-2.4,0-4.3,2.3-4.3,5.2s1.9,5.2,4.3,5.2c2.4,0,4.3-2.3,4.3-5.2S14.3,5.2,11.9,5.2z"/>
  </symbol>
  <symbol id="circle">
    <path stroke="currentColor" d="M22,12c0,5.5-4.5,10-10,10S2,17.5,2,12S6.5,2,12,2S22,6.5,22,12z"/>
  </symbol>
  <symbol id="coffee-cup">
    <path stroke="currentColor" d="M12,22H8c-3.3,0-6-2.7-6-6V4h16v12C18,19.3,15.3,22,12,22z M18,16h2.2c1.7,0,2.8-1.6,2.8-3.3v0.2c0-1.7-1.1-2.9-2.8-2.9H18 M16,22H4 M14,11.3C14,9.5,12.5,8,10.7,8H9.3C7.5,8,6,9.5,6,11.3v3.3C6,16.5,7.5,18,9.3,18h1.3c1.8,0,3.3-1.5,3.3-3.3V11.3z M11,8c-6.3,2.2,4.3,7.8-2,10"/>
  </symbol>
  <symbol id="coffee-grain">
    <path stroke="currentColor" d="M19.9,5.4l-1.2-1.2c-2.9-2.9-7.5-2.9-10.4,0L4.1,8.3c-2.9,2.9-2.9,7.5,0,10.4l1.2,1.2c2.9,2.9,7.5,2.9,10.4,0l4.1-4.1C22.7,12.9,22.7,8.2,19.9,5.4z M20.7,6.2C8.5,0.3,15.5,23.7,3.3,17.8"/>
  </symbol>
  <symbol id="comment">
    <path stroke="currentColor" d="M20.5,2H3.5C2.1,2,1,2.9,1,4.3V13v2.6v5.2L6.2,16H20c1.7,0,3-1.6,3-3V4.3C23,2.9,21.9,2,20.5,2z"/>
  </symbol>
  <symbol id="compass">
    <path stroke="currentColor" d="M12,9c-1.7,0-3,1.3-3,3s1.3,3,3,3s3-1.3,3-3S13.7,9,12,9z M12,9l9-6l0,0l0.1,0.1L15,12 M12,15l-9,6l-0.1-0.1L9,12 M22,12c0,5.5-4.5,10-10,10S2,17.5,2,12S6.5,2,12,2S22,6.5,22,12z M12,2v3 M12,22v-3 M22,12h-3 M5,12H2"/>
  </symbol>
  <symbol id="cursor-selection-pointer">
    <path stroke="currentColor" d="M6,20.8L6,2.6L18.4,16h-7.2L6,20.8z M11.2,16l3.1,7.6"/>
  </symbol>
  <symbol id="dividers">
    <path stroke="currentColor" d="M15,6c0,1.7-1.3,3-3,3S9,7.7,9,6s1.3-3,3-3S15,4.3,15,6z M12,3V0 M9,7L3,18l2,4l7-13 M12,9l7,13l2-4L15,7 M19.4,14.9c0.8-0.8,1.5-1.8,2-2.9 M7.6,16.9c1.4,0.7,2.9,1.1,4.6,1.1c1.6,0,3-0.4,4.3-1 M3,12c0.4,1,1,1.9,1.8,2.7 M12,16v4"/>
  </symbol>
  <symbol id="dna">
    <path stroke="currentColor" d="M16.5,2.1c-1.7-0.2-3.2,0-4.4,1.3C9.9,5.5,10.9,8.7,12,12c1,3.2,2.1,6.5-0.2,8.7c-1.3,1.3-2.9,1.5-4.7,1.2 M22,7.5c0.2,1.6-0.1,3.1-1.3,4.3C18.5,14,15.2,13,12,12c-3.2-1-6.5-2-8.7,0.2c-1.3,1.3-1.5,3-1.2,4.7 M13,2.8L19.2,9 M13.6,7.8l5.2,5.2 M4.8,10.9l5.8,5.8 M4.9,15.4l5.7,5.7"/>
  </symbol>
  <symbol id="drag">
    <path stroke="currentColor" d="M9,4.5C9,4.8,8.8,5,8.5,5S8,4.8,8,4.5S8.2,4,8.5,4S9,4.2,9,4.5z M15.5,4C15.2,4,15,4.2,15,4.5S15.2,5,15.5,5S16,4.8,16,4.5S15.8,4,15.5,4M8.5,20C8.2,20,8,20.2,8,20.5S8.2,21,8.5,21S9,20.8,9,20.5S8.8,20,8.5,20M15.5,20c-0.3,0-0.5,0.2-0.5,0.5s0.2,0.5,0.5,0.5s0.5-0.2,0.5-0.5S15.8,20,15.5,20z M8.5,12C8.2,12,8,12.2,8,12.5S8.2,13,8.5,13S9,12.8,9,12.5S8.8,12,8.5,12z M15.5,12c-0.3,0-0.5,0.2-0.5,0.5s0.2,0.5,0.5,0.5s0.5-0.2,0.5-0.5S15.8,12,15.5,12z"/>
  </symbol>
  <symbol id="dress">
    <path stroke="currentColor" d="M8.5,22.5c-0.8-1-2.1-0.9-3.2-0.2c0.4-3.1,1.3-6.1,2.4-9c0.9-2.2,1.9-3.9,3.3-4.9c-0.4-1-1.7-3.8-1.5-4.7c0.3-1.6,2-0.6,2.7,0.5C13,3,14.7,2,15,3.6c0.2,0.9-1.1,3.7-1.5,4.7c1.5,1.1,2.5,2.8,3.3,4.9c1.2,2.9,2,5.9,2.4,9c-1.2-0.8-2.4-0.8-3.2,0.2c-1.2-1.2-2.5-1.1-3.8,0C11,21.4,9.7,21.3,8.5,22.5z M9.7,0.7l0.5,2.1 M14.8,0.7l-0.5,2.1"/>
  </symbol>
  <symbol id="envelope">
    <path stroke="currentColor" d="M1.1,6.8L12,13.9l11-7.2 M1.1,17.5l8.6-5 M23,17.5l-8.8-5.1 M23,17c0,1.1-0.9,2-2,2H3c-1.1,0-2-0.9-2-2V7c0-1.1,0.9-2,2-2h18c1.1,0,2,0.9,2,2V17z"/>
  </symbol>
  <symbol id="eye-close">
    <path stroke="currentColor" d="M1,12C3.3,8.4,7.4,6,12,6c4.6,0,8.6,2.3,11,5.9c0,0,0,0.1,0,0.1c-2.3,3.6-6.4,6-11,6C7.4,18,3.3,15.5,1,12C1,12,1,12,1,12z M18,12c0-3.3-2.7-6-6-6H12c-3.3,0-6,2.7-6,6V12c0,3.3,2.7,6,6,6h0C15.3,18,18,15.3,18,12L18,12z M12,10.1c-1,0-1.9,0.8-1.9,1.9s0.8,1.9,1.9,1.9s1.9-0.8,1.9-1.9S13,10.1,12,10.1z M4,19.9L20,4.1"/>
  </symbol>
  <symbol id="eye-open">
    <path stroke="currentColor" d="M1,12C3.3,8.4,7.4,6,12,6c4.6,0,8.6,2.3,11,5.9c0,0,0,0.1,0,0.1c-2.3,3.6-6.4,6-11,6C7.4,18,3.3,15.5,1,12C1,12,1,12,1,12z M18,12c0-3.3-2.7-6-6-6H12c-3.3,0-6,2.7-6,6V12c0,3.3,2.7,6,6,6h0C15.3,18,18,15.3,18,12L18,12z M12,10.1c-1,0-1.9,0.8-1.9,1.9s0.8,1.9,1.9,1.9s1.9-0.8,1.9-1.9S13,10.1,12,10.1z M20,4.1 M4,19.9"/>
  </symbol>
  <symbol id="facebook">
    <path stroke="currentColor" d="M11,22c0-1.6,0-3.5,0-6H8v-4h3v-2c0-3.1,1.3-5,4-5h3
	l0,4c0,0-0.8,0-2,0c-0.5,0-1,0.4-1,1v2h3l-1,4h-2c0,2.6,0,4.5,0,6h5c1.1,0,2-0.9,2-2V4c0-1.1-0.9-2-2-2H4C2.9,2,2,2.9,2,4v16
	c0,1.1,0.9,2,2,2C4,22,11,22,11,22z"/>
  </symbol>
  <symbol id="facets">
    <path stroke="currentColor" d="M16,16H8V8h8V16z M22,2H8v14h14V2z M16,8H2v14h14V8z M8,12h8"/>
  </symbol>
  <symbol id="file-upload">
    <path stroke="currentColor" d="M20,23H4V1h10l6,6V23z M14,1v6h6 M12,11v9 M16,15l-4-4l-4,4"/>
  </symbol>
  <symbol id="fish">
    <path stroke="currentColor" d="M22.7,18.3c-3.9-1.3-4.5-3.2-5.6-4.9c-1.5,1.3-3.2,4.8-7.4,4.9c-4.2,0.1-8.6-6.2-8.6-6.2s4.4-6.3,8.6-6.2c4.2,0.1,5.8,3.6,7.4,4.9c1.1-1.7,1.6-3.6,5.6-4.9c0.9,3.3-1.4,6.2-1.4,6.2S23.6,15,22.7,18.3z M1.1,12.1c0,0,2.8,4,6.1,5.6c0.9-1.8,1.4-3.8,1.4-6c0-1.9-0.4-3.7-1.1-5.3C4.1,7.8,1.1,12.1,1.1,12.1z M13,6.8c0,0-0.4-1.8-0.7-3.9C10.7,3.1,9.4,4.3,8.6,6 M8.6,18.1c0.8,1.7,2.1,2.8,3.7,3c0.3-2.1,0.7-3.7,0.7-3.7 M5,11h2"/>
  </symbol>
  <symbol id="flower">
    <path stroke="currentColor" d="M16,12c0,2.2-1.8,4-4,4s-4-1.8-4-4s1.8-4,4-4S16,9.8,16,12z M22.9,15.4c-0.5,1.4-2,2.2-3.4,1.8c0.8,1.2,0.5,2.8-0.7,3.7h0c-1.2,0.9-2.9,0.6-3.9-0.5C14.8,21.9,13.5,23,12,23s-2.8-1.1-2.8-2.6c-0.9,1.1-2.6,1.3-3.9,0.5h0c-1.2-0.9-1.5-2.5-0.7-3.7c-1.4,0.4-3-0.4-3.4-1.8s0.3-2.9,1.7-3.4c-1.4-0.5-2.1-2-1.7-3.4c0.5-1.4,2-2.2,3.4-1.8C3.8,5.6,4.1,4,5.3,3.1l0,0c1.2-0.9,2.9-0.6,3.9,0.5C9.2,2.1,10.5,1,12,1s2.8,1.1,2.8,2.6c0.9-1.1,2.6-1.3,3.9-0.5l0,0c1.2,0.9,1.5,2.5,0.7,3.7c1.4-0.4,3,0.4,3.4,1.8c0.5,1.4-0.3,2.9-1.7,3.4C22.6,12.5,23.3,14,22.9,15.4z"/>
  </symbol>
  <symbol id="fruit">
    <path stroke="currentColor" d="M17.5,13.3c0.9,1,1.5,2.3,1.5,3.7c0,3.3-3.1,6-7,6s-7-2.7-7-6c0-1.4,0.6-2.7,1.5-3.7c1.3-1.4,1.9-3.2,1.9-5.2C8.5,5.9,9.9,5,12,5c2.1,0,3.5,1.4,3.5,3.3v0C15.5,10.1,16.2,11.9,17.5,13.3z M16,1c-1.7,0-4.1,1.3-3.9,4C15.3,5.4,16.3,2.5,16,1z M12,5c0-1.5-1.6-3-4-3"/>
  </symbol>
  <symbol id="funnel">
    <path stroke="currentColor" d="M14,14v7h-4v-7L3.1,3h17.8L14,14z"/>
  </symbol>
  <symbol id="filter">
    <path stroke="currentColor" d="M2,4h20 M5,12h14 M8,20h8"/>
  </symbol>
  <symbol id="gear">
    <path stroke="currentColor" d="M14.8,12c0,1.6-1.3,2.9-2.8,2.9S9.2,13.6,9.2,12s1.3-2.9,2.8-2.9S14.8,10.4,14.8,12z M20,12c0-0.7-0.1-1.5-0.3-2.1l2-1.1l-2-3.5l-2,1.1c-1-1-2.3-1.8-3.7-2.1V2h-4v2.3C8.6,4.6,7.3,5.4,6.3,6.4l-2-1.1l-2,3.5l2,1.1C4.1,10.5,4,11.3,4,12s0.1,1.5,0.3,2.1l-2,1.1l2,3.5l2-1.1c1,1,2.3,1.8,3.7,2.1V22h4v-2.3c1.4-0.4,2.7-1.1,3.7-2.1l2,1.1l2-3.5l-2-1.1C19.9,13.5,20,12.7,20,12z"/>
  </symbol>
  <symbol id="globe">
    <path stroke="currentColor" d="M17.7,8.6c0,4.1-3.3,7.4-7.5,7.4c-4.1,0-7.5-3.3-7.5-7.4c0-4.1,3.3-7.4,7.5-7.4C14.4,1.2,17.7,4.5,17.7,8.6z M5,23h10 M17.5,1.4c4,4,4,10.5,0,14.4c-4,4-10.5,4-14.5,0 M16.8,2l1.3-1.3 M2.3,16.5l1.3-1.3 M10,19v4"/>
  </symbol>
  <symbol id="hash">
    <path stroke="currentColor" d="M22,16H2 M2,8h20 M7,22L9,2 M17,2l-2,20"/>
  </symbol>
  <symbol id="heart">
    <path stroke="currentColor" d="M21.4,4c-2.1-2.1-5.5-2.1-7.6,0L12,5.8L10.2,4C8.1,1.9,4.7,1.9,2.6,4c-2.1,2.1-2.1,5.6,0,7.7l9.4,9.5l9.4-9.5C23.5,9.5,23.5,6.1,21.4,4z"/>
  </symbol>
  <symbol id="hierarchy">
    <path stroke="currentColor" d="M23,21h-4v-4h4V21z M14,17h-4v4h4V17z M5,17H1v4h4V17z M12,17V7 M21,17v-5H3v5 M14,3h-4v4h4V3z"/>
  </symbol>
  <symbol id="honey">
    <path stroke="currentColor" d="M7,10.6l5,2.9v5.9l-5,2.9l-5-2.9v-5.9L7,10.6z M12,13.5v5.9l5,2.9l5-2.9v-5.9l-5-2.9L12,13.5z M7,4.8v5.9l5,2.9l5-2.9V4.8l-5-2.9L7,4.8z"/>
  </symbol>
  <symbol id="input-text">
    <path stroke="currentColor" d="M7,1h1c2.2,0,4,1.8,4,4v14c0,2.2-1.8,4-4,4H7 M17,1h-0.9C13.9,1,12,2.8,12,5v14c0,2.2,1.9,4,4.1,4H17 M8,17h8 M19,20h1v-1 M4,19v1h1 M5,4H4v1 M20,5V4h-1 M20,7v2 M20,11v2 M20,15v2 M4,7v2 M9,4H7 M17,4h-2 M17,20h-2 M9,20H7 M4,11v2 M4,15v2"/>
  </symbol>
  <symbol id="instagram">
    <path stroke="currentColor" d="M18,5c0.6,0,1,0.4,1,1s-0.4,1-1,1s-1-0.4-1-1
S17.4,5,18,5z M22,7c0-2.9-2.4-5-5.2-5H7C4.1,2,2,4.1,2,7v10c0,2.9,2.1,5,5,5h10c2.8,0,5-2.1,5-5V7z M12,17c-2.7,0-5-2.2-5-5
s2.3-5,5-5s5,2.2,5,5S14.7,17,12,17z"/>
  </symbol>
  <symbol id="key">
    <path stroke="currentColor" d="M13,11L23,1 M17,1l3,3 M15,3l3,3 M15,18.2l-3.6,3.6c-1.6,1.6-4.1,1.6-5.7,0l-3.6-3.6c-1.6-1.6-1.6-4.1,0-5.7L5.8,9c1.6-1.6,4.1-1.6,5.7,0l3.6,3.6C16.6,14.1,16.6,16.7,15,18.2z M8,17.5C8,18.3,7.3,19,6.5,19S5,18.3,5,17.5S5.7,16,6.5,16S8,16.7,8,17.5z"/>
  </symbol>
  <symbol id="link">
    <path stroke="currentColor" d="M11.8,17.4l-4.8,4.8c-1,1-2.7,1-3.8,0l-1.4-1.4c-1-1-1-2.7,0-3.8l4.8-4.8c1-1,2.7-1,3.8,0l1.4,1.4C12.8,14.7,12.8,16.4,11.8,17.4z M22.2,3.1l-1.4-1.4c-1-1-2.7-1-3.8,0l-4.8,4.8c-1,1-1,2.7,0,3.8l1.4,1.4c1,1,2.7,1,3.8,0l4.8-4.8C23.3,5.9,23.3,4.2,22.2,3.1z M7.6,16.2l8.5-8.5"/>
  </symbol>
  <symbol id="list-blank-file">
    <path stroke="currentColor" d="M20,23H4V1h10l6,6V23z M14,1v6h6"/>
  </symbol>
  <symbol id="list">
    <path stroke="currentColor" d="M21,21H10v-4h11V21z M7,17H3v4h4V17z M21,10H10v4h11V10z M7,10H3v4h4V10z M21,3H10v4h11V3z M7,3H3v4h4V3z"/>
  </symbol>
  <symbol id="lock-closed">
    <path stroke="currentColor" d="M13,14.8c0,0.6-0.4,1-1,1s-1-0.4-1-1c0-0.6,0.4-1,1-1S13,14.2,13,14.8z M12,15v4 M20,10H4v13h16V10z M17,10V5.9C17,3.2,14.7,1,12,1C9.3,1,7,3.3,7,6v4"/>
  </symbol>
  <symbol id="lock-open">
    <path stroke="currentColor" d="M13,14.8c0,0.6-0.4,1-1,1s-1-0.4-1-1c0-0.6,0.4-1,1-1S13,14.2,13,14.8z M12,15v4 M20,10H4v13h16V10z M7,6c0-2.7,2.3-5,5-5c2.7,0,5,2.2,5,4.9V10"/>
  </symbol>
  <symbol id="map-marker">
    <path stroke="currentColor" d="M18.9,7.9c0,3.8-6.9,14.3-6.9,14.3S5.1,11.7,5.1,7.9C5.1,4.1,8.2,1,12,1C15.8,1,18.9,4.1,18.9,7.9z M12,4.7c-1.8,0-3.3,1.5-3.3,3.3c0,1.8,1.5,3.3,3.3,3.3c1.8,0,3.3-1.5,3.3-3.3C15.3,6.1,13.8,4.7,12,4.7z"/>
  </symbol>
  <symbol id="markdown">
    <path stroke="currentColor" d="M2,23V3l10,12L22,3v20 M12,14v8.4 M2,10l10,12l10-12"/>
  </symbol>
  <symbol id="meat">
    <path stroke="currentColor" d="M20.4,3.5c2.8,2.8,3.4,6.7,1.3,8.8s-6,1.4-8.7-1.4s-3.4-6.7-1.3-8.8S17.7,0.7,20.4,3.5z M15,5.4c-0.7,0.7-0.5,2.1,0.5,3.1s2.3,1.2,3.1,0.5S19,6.9,18,5.9S15.7,4.7,15,5.4z M1.7,19.7c0.5,0.5,1.3,0.8,2,0.7c-0.1,0.7,0.1,1.5,0.6,2c0.9,0.9,2.4,0.9,3.3,0c0.9-0.9,0.9-2.4,0-3.3c0,0-0.1-0.1-0.1-0.1l2-2L7,14.5l-2,2c0,0-0.1-0.1-0.1-0.1c-0.9-0.9-2.4-0.9-3.3,0C0.8,17.3,0.8,18.8,1.7,19.7z M11.9,2C7.5,6.4,8.7,12.8,6.8,14.8 M9.2,17.3c2-2,8.3-0.7,12.7-5.1"/>
  </symbol>
  <symbol id="milk-jug">
    <path stroke="currentColor" d="M3.2,17.6c0-1.8,0.7-3.7,1.8-5C6.6,10.9,7.5,9.5,7.5,7c0-2.4-1.1-3.6-2.5-5c4.2-2.6,5.4,1.9,10.7,2c-0.5,2.9,0.8,6.8,2.4,8.6c1.2,1.3,1.9,3.1,1.9,5c0,2-0.8,3.4-2.1,5.4H5.4C4.1,21,3.2,19.7,3.2,17.6z M19.4,14c0,0,4.2-5.5,2.3-9.2c-1.2-2.5-4.6-2.2-6,0 M4.8,12.6c1.7,0,1.7,1.3,3.4,1.3c1.7,0,1.7-1.3,3.4-1.3c1.7,0,1.7,1.3,3.4,1.3s1.7-1.3,3.4-1.3"/>
  </symbol>
  <symbol id="music">
    <path stroke="currentColor" d="M8,17c0,0-2.8,0-3.3,0c-1.6,0-2.9,1.4-2.9,3c0,1.6,1.5,2.9,3.1,2.9c1.6,0,3.1-1.4,3.1-2.8C8,19.1,8,5.8,8,5.8l10-4.3c0,0,0,13.9,0,14.8c0,1.4-1.2,2.9-2.8,2.9c-1.6,0-2.8-1.5-2.8-3.1c0-1.6,1.3-3.1,2.9-3.1c0.5,0,2.7,0,2.7,0 M18.2,4.8L7.6,9.1"/>
  </symbol>
  <symbol id="paint-roller">
    <path stroke="currentColor" d="M17,8H3C1.9,8,1,7.1,1,6V4c0-1.1,0.9-2,2-2h14
    	c1.1,0,2,0.9,2,2v2C19,7.1,18.1,8,17,8z M12,16H8v7h4V16z M10,16v-4h13V5h-4"/>
  </symbol>
  <symbol id="phone">
    <path stroke="currentColor" d="M2,18c0,3.4,2.6,5.5,5.6,4.9c7.8-1.8,14-9.9,15.3-15.1C23.5,4.9,21,2.5,18,2c-1.1,1.8-2,3.3-3,5c0.7,2.1,4,0.8,3,3c-1.1,2.4-4.2,7.4-8,8c-2.2,0.3-0.9-.3-3-3C5.6,15.8,3.6,17,2,18z M12,5c-3.9,0-7,3.1-7,7 M12,1C5.9,1,1,5.9,1,12"/>
  </symbol>
  <symbol id="picture">
    <path stroke="currentColor" d="M21,21H3V3h18V21z M8,6C6.9,6,6,6.9,6,8s0.9,2,2,2
	c1.1,0,2-0.9,2-2S9.1,6,8,6z M21,16l-5-5l-5,5 M13,18l-5-5l-5,5"/>
  </symbol>
  <symbol id="plus">
    <path stroke="currentColor" d="M12,0.8v22.5 M0.8,12h22.5"/>
  </symbol>
  <symbol id="minus">
    <path stroke="currentColor" d="M0.8,12h22.5"/>
  </symbol>
  <symbol id="radio-button-checked">
    <path stroke="currentColor" d="M22,12c0,5.5-4.5,10-10,10S2,17.5,2,12S6.5,2,12,2S22,6.5,22,12z M12,6.6C9,6.6,6.6,9,6.6,12S9,17.4,12,17.4s5.4-2.4,5.4-5.4S15,6.6,12,6.6z"/>
  </symbol>
  <symbol id="sausage">
    <path stroke="currentColor" d="M19.7,8.6C15,11.8,9,11.8,4.3,8.6C3.2,7.8,2.3,6.3,3,5c0.9-1.7,2.7-1,3.6-0.4c3.3,2.3,7.5,2.3,10.9,0C18.3,4,20.1,3.5,21,5C21.8,6.3,20.8,7.8,19.7,8.6z M3.4,4.9L2.7,3.6l-1,1.7L3,5.5 M21,5.5l1.4-0.2l-1-1.7l-0.7,1.3 M9,11v3c0,1.7,1.3,3,3,3h0c1.7,0,3-1.3,3-3v-3 M12,11v13"/>
  </symbol>
  <symbol id="sign-out">
    <path stroke="currentColor" d="M17,7l5,5l-5,5 M19,5V2H5v20h14v-3 M11,12h11"/>
  </symbol>
  <symbol id="smartphone">
    <path stroke="currentColor" d="M18,21.1c0,1.1-0.6,1.9-1.6,1.9H7.6C6.6,23,6,22.1,6,21.1V2.9C6,1.9,6.6,1,7.6,1h8.7C17.4,1,18,1.9,18,2.9V21.1z M18,5H6 M18,19H6 M10,3h4 M11,21h2"/>
  </symbol>
  <symbol id="spoon-fork">
    <path stroke="currentColor" d="M15,24V2c2,0,5,8,5,16h-5 M4,1v5c0,1.6,1.4,2.9,3,2.9c1.6,0,3-1.3,3-2.9V1 M7,1v23"/>
  </symbol>
  <symbol id="square">
    <path stroke="currentColor" d="M19,21H5c-1.1,0-2-0.9-2-2V5c0-1.1,0.9-2,2-2h14c1.1,0,2,0.9,2,2v14C21,20.1,20.1,21,19,21z"/>
  </symbol>
  <symbol id="star-half">
    <path stroke="currentColor" d="M12,3L15,9l6.8,1l-4.9,4.7l1.2,6.7L12,18.3l-6.1,3.2l1.2-6.7L2.1,10L9,9L12,3z M6.6,17.9h5.2 M6,14h6.1 M3,10h9 M12,3.1v15.2"/>
  </symbol>
  <symbol id="star">
    <path stroke="currentColor" d="M12,3.2l3,6l6.8,1l-4.9,4.6l1.2,6.5L12,18.2l-6.1,3.1l1.2-6.5l-4.9-4.6l6.8-1L12,3.2z"/>
  </symbol>
  <symbol id="table-4">
    <path stroke="currentColor" d="M10,21H3v-7h7V21z M10,3H3v7h7V3z M21,3h-7v7h7V3z M21,14h-7v7h7V14z"/>
  </symbol>
  <symbol id="table-9">
    <path stroke="currentColor" d="M21,21h-4v-4h4V21z M14,17h-4v4h4V17z M7,17H3v4h4V17z M21,10h-4v4h4V10z M14,10h-4v4h4V10z M7,10H3v4h4V10z M21,3h-4v4h4V3z M14,3h-4v4h4V3z M7,3H3v4h4V3z"/>
  </symbol>
  <symbol id="tag">
    <path stroke="currentColor" d="M11.8,20.6L4.2,13C3.4,12.2,3,11.1,3,10.1v-5C3,3.9,3.9,3,5.1,3h5c1.1,0,2.1,0.4,2.9,1.2l7.6,7.6c1.2,1.2,1.2,3.1,0,4.2l-4.5,4.5C14.9,21.8,13,21.8,11.8,20.6z M6.7,6.7c-0.8,0.8-0.8,2.1,0,2.9s2.1,0.8,2.9,0s0.8-2.1,0-2.9S7.5,5.8,6.7,6.7z"/>
  </symbol>
  <symbol id="times">
    <path stroke="currentColor" d="M1.8,22.2L22.2,1.8 M22.2,22.2L1.8,1.8"/>
  </symbol>
  <symbol id="trash">
    <path stroke="currentColor" d="M20,4v19H4V4 M16,4V1H8v3 M2,4h20 M8,7v12 M12,7v12M16,7v12"/>
  </symbol>
  <symbol id="twitter">
    <path stroke="currentColor" d="M20.4,6.6c0,0,0.6-1.1,0.8-2c0,0-1.4,0.3-2.9,0.7
	c0,0-1.2-1.8-3.9-1.1c-2.7,0.6-3.2,3.7-3.2,5c0,0-4.6,0.4-8.4-3.9c0,0-0.7,3.5,1.4,5.8c0,0-0.9,0.2-1.9,0c0,0,0.7,2.5,3.3,3.4
	c0,0-1,0.3-1.9,0.7c0,0,1.7,1.7,3.9,2.3c-2,1.2-6.2,1.7-6.2,1.7s0,0.2,0,0.3c0.5,0.2,4,2,8.7,1.4c3.6-0.5,6.7-3.2,8.3-6.2
	c0.4-0.9,1.6-3,1.6-5.1c0,0,1.3-1.7,1.9-2.6C21.9,6.9,21.2,6.6,20.4,6.6z"/>
  </symbol>
  <symbol id="user">
    <path stroke="currentColor" d="M14,13v2.7l5,1.8c1.2,0.4,2,1.5,2,2.8V22H3v-1.7c0-1.3,0.8-2.4,2-2.8l5-1.8V13 M11.9,1.8c-2.7,0-5,2.7-5,6s2.2,6,5,6c2.7,0,5-2.7,5-6S14.6,1.8,11.9,1.8z"/>
  </symbol>
  <symbol id="vertical-ellipsis">
    <path stroke="currentColor" d="M14,3c0,1.1-0.9,2-2,2s-2-0.9-2-2s0.9-2,2-2S14,1.9,14,3z M14,21c0,1.1-0.9,2-2,2s-2-0.9-2-2s0.9-2,2-2S14,19.9,14,21z M14,12c0,1.1-0.9,2-2,2s-2-0.9-2-2s0.9-2,2-2S14,10.9,14,12z"/>
  </symbol>
  <symbol id="vkontakte">
    <path stroke="currentColor" d="M19.3,11.9c0,0,2.9-4.1,3.2-5.5
	c0.1-0.5-0.1-0.8-0.6-0.8c0,0-1.7,0-2.5,0c-0.6,0-0.8,0.3-1,0.6c0,0-1.4,2.9-3,4.7c-0.5,0.6-0.8,0.8-1.1,0.8c-0.2,0-0.3-0.2-0.3-0.7
	V6.4c0-0.7-0.1-0.8-0.6-0.8h-4C9,5.5,8.8,5.7,8.8,6c0,0.6,0.9,0.8,0.9,2.4v3.5c0,0.7,0,1-0.4,1c-0.9,0-2.9-3-4.1-6.4
	C5.1,5.7,4.8,5.5,4.1,5.5H1.6C1.3,5.5,1,5.8,1,6.1c0,0.7,0.8,3.8,3.9,8c2.1,2.8,4.8,4.3,7.3,4.3c1.5,0,1.9-0.3,1.9-0.9v-2.2
	c0-0.5,0.2-0.8,0.5-0.8c0.3,0,1,0.1,2.4,1.5c1.7,1.6,1.8,2.3,2.7,2.3h2.8c0.3,0,0.6-0.1,0.6-0.6c0-0.6-0.8-1.8-2.1-3.1
	c-0.5-0.7-1.4-1.4-1.6-1.8C18.9,12.5,19,12.3,19.3,11.9z"/>
  </symbol>
  <symbol id="wineglass">
    <path stroke="currentColor" d="M12,15L3.8,5h15.6L12,15 M12,15v8 M7,23h10 M7.8,5.4L4,1H0 M17.3,8.4C17.9,8.8,18.6,9,19.4,9c2,0,3.6-1.6,3.6-3.6s-1.6-3.6-3.6-3.6s-3.6,1.6-3.6,3.6"/>
  </symbol>
  <symbol id="youtube">
    <path stroke="currentColor" d="M19.8,4.2H4.2C2.4,4.2,1,5.7,1,7.5v9c0,1.8,1.4,3.3,3.2,3.3h15.6c1.8,0,3.2-1.5,3.2-3.3v-9C23,5.7,21.6,4.2,19.8,4.2z M9.7,14.9V8.6l6,3.1L9.7,14.9z"/>
  </symbol>
  <symbol id="zoom-magnifier">
    <path stroke="currentColor" d="M17,9c0,4.4-3.6,8-8.1,8s-8.1-3.6-8.1-8s3.6-8,8.1-8S17,4.5,17,9z M23,23l-8.3-8.3"/>
  </symbol>
  <symbol id="zoom-magnifier-minus">
    <path stroke="currentColor" d="M17,9c0,4.4-3.6,8-8.1,8s-8.1-3.6-8.1-8s3.6-8,8.1-8S17,4.5,17,9z M23,23l-8.3-8.3 M5,9h8"/>
  </symbol>
  <symbol id="zoom-magnifier-plus">
    <path stroke="currentColor" d="M17,9c0,4.4-3.6,8-8.1,8s-8.1-3.6-8.1-8s3.6-8,8.1-8S17,4.5,17,9z M23,23l-8.3-8.3 M5,9h8 M9,5v8"/>
  </symbol>
  <symbol id="turn-off">
    <path stroke="currentColor" d="M12,6V0 M9,2.5C4.9,3.7,2,7.5,2,12c0,5.5,4.5,10,10,10s10-4.5,10-10c0-4.5-2.9-8.3-7-9.5"/>
  </symbol>
  <symbol id="house-home">
    <path stroke="currentColor" d="M20,10v12h-6v-6h-4v6H4V10 M22.4,12.6L12,2.2L1.6,12.6"/>
  </symbol>
  <symbol id="sort">
    <path stroke="currentColor" d="M19,1v23 M14,8v16 M9,14v10 M4,17v7"/>
  </symbol>
  <symbol id="clock">
    <path stroke="currentColor" d="M22,12c0,5.5-4.5,10-10,10S2,17.5,2,12S6.5,2,12,2S22,6.5,22,12z M17,7l-5,5 M19,12h3 M12,22v-3 M2,12h3 M12,5V2 M12,11c-0.6,0-1,0.4-1,1s0.4,1,1,1s1-0.4,1-1S12.6,11,12,11z"/>
  </symbol>
  <symbol id="headphones">
    <path stroke="currentColor" d="M2.9,16.6c-1.1,0-1.9-0.9-1.9-1.9s0.9-1.9,1.9-1.9 M7,10H4.8C3.8,10,3,10.7,3,11.7v5.8C3,18.6,3.8,19,4.8,19H7V10z M21.1,16.6c1.1,0,1.9-0.9,1.9-1.9s-0.9-1.9-1.9-1.9 M17,19h2.2c1.1,0,1.8-0.4,1.8-1.5v-5.8c0-1.1-0.8-1.7-1.8-1.7H17V19z M18.7,9.8c0-3.7-3-6.8-6.7-6.8c-3.7,0-6.7,3-6.7,6.8"/>
  </symbol>
  <symbol id="water">
    <path stroke="currentColor" d="M19.3,15.7c0,4-3.3,7.3-7.3,7.3s-7.3-3.2-7.3-7.3s7.3-14,7.3-14S19.3,11.7,19.3,15.7z M9,13c-1.2,2.1-1,4.5,1.8,5.9"/>
  </symbol>
  <symbol id="fire">
    <path stroke="currentColor" d="M10,23c-2.8,0-6.7-2.1-7-8c-0.1-2.2,0.3-5.5,3-8c-0.1,2,0.6,5,2,6c0.3-2.8,1-8.6,5.8-11.1c-1.2,5.2,0.5,8.4,1.2,9.1c0.8-1.2,2-2.5,3-3c0.4,3.3,1.9,5.6,2,8c0.2,4.4-2.4,7-5,7c-0.2-3.9-2.6-5.9-3-9C9.8,15.7,8.2,19,10,23z"/>
  </symbol>
  <symbol id="download">
    <path stroke="currentColor" d="M22.1,17L22.1,17 M22,17v4.1c0,0.7-0.5,1.3-1.2,1.3l-17.6,0c-0.7,0-1.2-0.5-1.2-1.3V17 M12,2v15 M6.2,11.9l5.8,5.8l5.8-5.8"/>
  </symbol>
  <symbol id="circle-down">
    <path stroke="currentColor" d="M1,12.1C1,6,5.9,1,12,1s11,5,11,11.1s-4.9,11.1-11,11.1S1,18.2,1,12.1 M16.8,12.9L12,17.7l-4.8-4.9 M12,17V6"/>
  </symbol>
  <symbol id="circle-up">
    <path stroke="currentColor" d="M1,12.1C1,6,5.9,1,12,1s11,5,11,11.1s-4.9,11.1-11,11.1S1,18.2,1,12.1 M7.2,11.3L12,6.5l4.8,4.9 M12,18V7"/>
  </symbol>
  <symbol id="play">
    <path stroke="currentColor" d="M22,12L5,21.8V2.2L22,12z"/>
  </symbol>
  <symbol id="flag">
    <path stroke="currentColor" d="M2,15c7-6.2,13,6.2,20,0c0-4,0-8,0-12C15,9.2,9-3.2,2,3c0,4,0,21,0,21"/>
  </symbol>
  <symbol id="mute">
    <path stroke="currentColor" d="M18,21.5L10.9,17h-4c-0.6,0-1-0.6-1-1.2l0-7.6c0-0.6,0.4-1.3,1-1.3h4L18,2.5V21.5z"/>
  </symbol>
  <symbol id="loudest">
    <path stroke="currentColor" d="M13,21.5L6,17H2c-0.6,0-1-0.6-1-1.2l0-7.6C1,7.7,1.5,7,2,7h4l7-4.5V21.5z M15.2,9.9c1.1,0,2.1,0.9,2.1,2.1s-0.9,2.1-2.1,2.1 M15.2,17c2.8,0,5-2.2,5-5s-2.2-5-5-5 M15.2,19.8c4.3,0,7.8-3.5,7.8-7.8s-3.5-7.8-7.8-7.8"/>
  </symbol>
  <symbol id="qr-code">
    <path stroke="currentColor" d="M10,22H2v-8h8V22z M22,2h-8v8h8V2z M10,2H2v8h8V2z M5,18h2 M5,6h2 M17,6h2 M13,14h2 M23,16h-3v4h-3v3 M14,19v4 M16,17h2 M13,17h2 M19,13h4 M21,22h2"/>
  </symbol>
  <symbol id="barcode">
    <path stroke="currentColor" d="M2,1v22 M6,1v22 M10,1v22 M12,1v22 M16,1v22 M18,1v22 M22,1v22"/>
  </symbol>
  <symbol id="tags">
    <path stroke="currentColor" d="M9.6,20.2l-7.4-7.4C1.4,12,1,10.9,1,9.9V5c0-1.1,0.9-2,2-2h4.9c1.1,0,2.1,0.4,2.9,1.2l7.4,7.4c1.1,1.1,1.1,3,0,4.1l-4.4,4.4C12.6,21.3,10.7,21.3,9.6,20.2z M4.5,6.5c-0.8,0.8-0.8,2.1,0,2.9s2.1,0.8,2.9,0s0.8-2.1,0-2.9S5.3,5.8,4.5,6.5z M7,3h4.9c1.1,0,2.1,0.4,2.9,1.2l7.4,7.4c1.1,1.1,1.1,3,0,4.1l-4.4,4.4c-1.1,1.1-3,1.1-4.1,0"/>
  </symbol>
  <symbol id="bookmark">
    <path stroke="currentColor" d="M19,21.8l-7-5.7l-7,5.7V3c0-1.1,0.9-2,2-2h10c1.1,0,2,0.9,2,2V21.8z"/>
  </symbol>
  <symbol id="print">
    <path stroke="currentColor" d="M19,19v3H5v-3 M19,12V7.1v0l-4.9-5h0H5v10 M14,2v0.4V7h5 M3,12c-1.1,0-2,0.7-2,1.8V19h4v-2h14v2h0h4v-5.2c0-1.1-0.9-1.8-2-1.8H3z M6,14h2 M9,14h2"/>
  </symbol>
  <symbol id="camera-video">
    <path stroke="currentColor" d="M15,19H3c-1.1,0-2-0.9-2-2v-6c0-1.1,0.9-2,2-2h12c1.1,0,2,0.9,2,2v6C17,18.1,16.1,19,15,19z M6,5C4.9,5,4,5.9,4,7c0,1.1,0.9,2,2,2s2-0.9,2-2C8,5.9,7.1,5,6,5z M11,5C9.9,5,9,5.9,9,7c0,1.1,0.9,2,2,2s2-0.9,2-2C13,5.9,12.1,5,11,5z M17,16l6,2v-8l-6,2"/>
  </symbol>
  <symbol id="pencil">
    <path stroke="currentColor" d="M17,1.6c1.3-1.3,4-0.7,5.4,1.6c0.8,1.4,0.7,2.9-0.2,3.8L8.6,20.7l-7.2,2l1.9-7.3L17,1.6z M20.3,8.9L15,3.6 M14,4.7 M19.3,10 M8.6,20.7l-5.3-5.3 M16.6,7.3 M6,18.1"/>
  </symbol>
  <symbol id="half">
    <path stroke="currentColor" d="M23.1,12c0,6.1-5,11-11.1,11S0.9,18.1,0.9,12S5.9,1,12,1S23.1,5.9,23.1,12z M12,23c6.1,0,11.1-4.9,11.1-11S18.1,1,12,1V23z M12,18h9 M12,12h11 M12,6h9"/>
  </symbol>
  <symbol id="cart">
    <path stroke="currentColor" d="M13,0v6 M10,3l3,3l3-3 M16.8,21.5c0,0.8,0.7,1.5,1.5,1.5c0.8,0,1.5-0.7,1.5-1.5S19.1,20,18.3,20C17.5,20,16.8,20.7,16.8,21.5z M5.8,21.5c0,0.8,0.7,1.5,1.5,1.5s1.5-0.7,1.5-1.5S8.1,20,7.3,20S5.8,20.7,5.8,21.5z M0,4h3.7l3.9,16H18 M7,17h12.4l2.9-9H5"/>
  </symbol>
  <symbol id="bug-busket">
    <path stroke="currentColor" d="M19.5,22h-15L1.3,10h21.4L19.5,22z M9,4l-4,6 M19,10l-4-6"/>
  </symbol>
  <symbol id="bug">
    <path stroke="currentColor" d="M6.2,7h11.6l1.9,16H4.3L6.2,7z M15,10V3.5C15,2.1,13.6,1,12.2,1h-0.4C10.5,1,9,2.1,9,3.5V10"/>
  </symbol>
  <symbol id="microphone">
    <path stroke="currentColor" d="M12,21v3 M17,6c0-2.8-2.2-5-5-5l0,0C9.2,1,7,3.2,7,6v7c0,2.8,2.2,5,5,5l0,0c2.8,0,5-2.2,5-5V6z M4,12c0,5.5,3.6,9,8,9h0c4.4,0,8-3.8,8-9"/>
  </symbol>
  <symbol id="microphone-mute">
    <path stroke="currentColor" d="M21,1L2,21 M12,21v3 M17,6c0-2.8-2.2-5-5-5l0,0C9.2,1,7,3.2,7,6v7c0,2.8,2.2,5,5,5l0,0c2.8,0,5-2.2,5-5V6z M4,12c0,5.5,3.6,9,8,9h0c4.4,0,8-3.8,8-9"/>
  </symbol>
  <symbol id="semicolon">
    <path stroke="currentColor" d="M9,23l-1-3c1.4-1.5,2-3.2,2-6c2.1,0,1.7,0,4,0C14,16.5,12.4,20.7,9,23z M12,1c-1.7,0-3,1.3-3,3s1.3,3,3,3s3-1.3,3-3S13.7,1,12,1z"/>
  </symbol>
  <symbol id="bulb">
    <path stroke="currentColor" d="M15.5,14.5c-0.8,1.3-1.5,2.8-1.5,4.4v2.5c0,0.9-0.4,1.6-1.3,1.6h-1.3c-0.9,0-1.4-0.7-1.4-1.6v-2.5c0-1.5-0.6-3-1.4-4.4c-1-1.6-1.8-3.2-1.8-4.3c0-3,2.4-5.4,5.3-5.4c3,0,5.3,2.4,5.3,5.4C17.3,11.3,16.4,12.9,15.5,14.5z M10,19h4 M15.6,4.2l1.6-2.8 M21,5.2l-2.9,1.6 M3,15.6l2.9-1.7 M19,10h3 M2,10h3 M18,13.9l3,1.7 M5.8,6.8L3,5.2 M8.4,4.2L6.8,1.4 M12,0v3"/>
  </symbol>
  <symbol id="menu">
    <path stroke="currentColor" d="M2,4h20 M2,12h20 M2,20h20"/>
  </symbol>
  <symbol id="initState">
    <path stroke="currentColor" d="M21.9,12c0,5.5-4.5,10-9.9,10s-9.9-4.5-9.9-10S6.5,2,12,2S21.9,6.5,21.9,12z M12,10c-1.1,0-2,0.9-2,2s0.9,2,2,2s2-0.9,2-2S13.1,10,12,10z"/>
  </symbol>
  <symbol id="root">
    <path stroke="currentColor" d="M1,15c6-8,16-8,22,0"/>
  </symbol>
  <symbol id="prefix">
    <path stroke="currentColor" d="M1,10h21v6"/>
  </symbol>
  <symbol id="suffix">
    <path stroke="currentColor" d="M1,15l11-6l10,6"/>
  </symbol>
  <symbol id="end">
    <path stroke="currentColor" d="M21,17H3V7h18V17z"/>
  </symbol>
  <symbol id="marker">
    <path stroke="currentColor" d="M11,19l-6,2l-2-2l2-6L15,3c0.8-0.8,2.2-0.8,3,0l3,3c0.8,0.8,0.8,2.2,0,3L11,19z M5,13l6,6 M1,23l3-3"/>
  </symbol>
  <symbol id="circle-question">
    <path stroke="currentColor" d="M4.9,19.1C1,15.2,1,8.8,4.9,4.9s10.2-3.9,14.1,0s3.9,10.2,0,14.1S8.8,23,4.9,19.1z M12,16l0-0.7c0-1.4,0.6-2.7,1.8-3.4c1.1-0.6,1.8-1.8,1.8-3.1v0c0-2-1.6-3.6-3.6-3.6h0c-2,0-3.6,1.6-3.6,3.6v0.4 M12,18v2"/>
  </symbol>
  <symbol id="pause">
    <path stroke="currentColor" d="M10,21H3V3h7V21z M21,3h-7v18h7V3z"/>
  </symbol>
  <symbol id="shell">
    <path stroke="currentColor" d="M18,18v2c0,1.1-0.9,2-2,2l-8,0c-1.1,0-2-0.9-2-2v-2 M22,13.3c0,0,0,0.7,0-1.4c1-2-1-6-3-6c0-3-5-4-7-3c-2-1-7,0-7,3c-2,0-4,4-3,6c0,2,0,1.4,0,1.4c0,1.6,1,3,2.4,3.7l3.8,1.6c0.5,0.2,0.9,0.7,1.1,1.2L10,22h4l0.7-2.1c0.2-0.5,0.6-1,1.1-1.2l3.8-1.6C21,16.4,22,14.9,22,13.3z M2,12l5,2 M22,12l-5,2 M5,6l4,6 M15,12l4-6 M12,2v9"/>
  </symbol>
  <symbol id="telegram">
    <path stroke="currentColor" d="M2,11l21-8l-5,19l-7-6l-4,3v-5L2,11z M7,14L21,4l1,1L11,16"/>
  </symbol>
  <symbol id="tiktok">
    <path stroke="currentColor" d="M21,10c-0.2,0-0.8,0-1,0c-1,0-2.8-0.6-4-2l0,7.9c0,3.4-2.7,6.1-6.1,6.1s-6.1-2.7-6.1-6.1S6.3,10,9.6,10l0.4,0v3c-1.7,0-3.2,1.2-3.2,2.9c0,1.7,1.4,3.1,3.1,3.1c1.7,0,3.1-1.3,3.1-3V2l3.1,0c0.3,2.6,2.3,4.6,4.9,4.8V10z"/>
  </symbol>
  <symbol id="coin">
    <path stroke="currentColor" d="M15,12c0,5.5-2.5,10-6,10s-5.9-4.5-5.9-10S5.5,2,9,2S15,6.5,15,12z M9,22c0,0,2.1,0,5.6,0S20,17.5,20,12S18.1,2,14.6,2S9,2,9,2"/>
  </symbol>
</svg>
