<svg version="1.1" xmlns="http://www.w3.org/2000/svg" xmlns:xlink="http://www.w3.org/1999/xlink">
<g id="ill">
	<g>
		<path class="svg-white" fill="hsla(var(--icon-primary-color), 0.2)" d="M79,47v6.9c0,4.2-3.2,8.1-7.1,8.1H23.1c-3.9,0-7.1-3.9-7.1-8.1V47h0.1H79L79,47z M39,19.6v-4.2l-0.9-0.3
			l-2.2,1.6l-2.1-1.6l-2.1,1.6l-2.1-1.6l-2.1,1.6l-1.9-1.6L25,15.4v4.2V20v6v0.4V36v6h14v-6v-9.6V26v-6V19.6z"/>
		<path id="svg-secondary" class="svg-secondary" fill="hsl(var(--icon-secondary-color))" d="M6,69v22h4v4h8v-4h60v4h8v-4h3V69H6z M57,6.8V3.2C57,2,58,1,59.1,1h16.1
			C76.3,1,77,2,77,3.2v3.7C77,8,76.3,9,75.2,9h-1.6c-3,0-4.6,1-4.6,4.2V14h-4v-0.8c0-2.6-1.2-4.2-3.6-4.2h-2.3C58,9,57,8,57,6.8z"/>
		<path id="primary_3_" class="svg-primary" fill="hsl(var(--icon-primary-color))" d="M16,46.6v7.3c0,4.2,3.2,8.1,7.1,8.1H72c3.8,0,7-3.9,7-8.1v-7.3V34c0-4.2-3.2-8-7-8H39v-6h34
			c7,0,12,5.8,12,13.5V69H10V33.5C10,25.8,15.3,20,22.3,20H25v6h-1.9c-3.8,0-7.1,3.8-7.1,8V46.6z"/>
	</g>
	<path stroke-width="var(--icon-edge-width)" d="M25,20h-2.7c-7,0-12.3,5.8-12.3,13.5V69h75V33.5C85,25.8,79.7,20,72.7,20H39 M25,26h-1.9
		c-3.8,0-7.1,3.8-7.1,8v12.6v7.3c0,4.2,3.2,8.1,7.1,8.1H72c3.8,0,7.1-3.9,7.1-8.1v-7.3V34c0-4.2-3.2-8-7.1-8H39 M77,3
		c0-1.2-0.5-2-1.6-2H59.1C58,1,57,2,57,3.2v3.7C57,8,58,9,59.1,9h16.2C76.5,9,77,8.2,77,7V3z M60,9c2.4,0,5,1.1,5,4.2V14h4v-1
		c0-2.6,2.6-4,5-4H60z M16,47L16,47h62.9H79 M89,69H6v22h83V69z M18,91h-8v4h8V91z M86,91h-8v4h8V91z M39,19.6v-4.2l-0.9-0.3
		l-2.2,1.6l-2.1-1.6l-2.1,1.6l-2.1-1.6l-2.1,1.6l-1.9-1.6L25,15.4v4.2v6.8V36v6h14v-6v-9.6V19.6z"/>
	<path stroke-width="2px" d="M71,52h3 M61,52h3 M51,52h3 M41,52h3 M31,52h3 M21,52h3 M65,57h4 M55,57h4 M45,57h4 M35,57h4 M25,57
		h4 M67,14v6 M57,80H16 M77.2,77.5c-1.1,0-2,0.9-2,2s0.9,2,2,2s2-0.9,2-2S78.3,77.5,77.2,77.5z M25,36h-4v6h3.9H43v-6h-4"/>
</g>
</svg>
