<svg version="1.1" xmlns="http://www.w3.org/2000/svg" xmlns:xlink="http://www.w3.org/1999/xlink">
<defs>
<g id="ill">
	<g>
		<path fill="hsl(var(--icon-primary-color))" d="M76,65l-10.2,0.1c-0.6-1.8-2.3-3.1-4.3-3.1s-3.6,1.3-4.3,3H33.8c-0.6-2-2.3-3-4.3-3
			c-2,0-3.6,1.3-4.2,3H21v-6h30v-5h21l4,4V65z M86,82c0,3.3-6,12-6,12s-6-8.7-6-12s2.7-6,6-6S86,78.7,86,82z M82,82c0-1.1-0.9-2-2-2
			s-2,0.9-2,2c0,1.1,0.9,2,2,2S82,83.1,82,82z"/>

		<path fill="hsl(var(--icon-secondary-color))" d="M61,36v8H51v15H20V36H61z"/>
		<path fill="hsla(var(--icon-primary-color), 0.2)" d="M40.7,65c0.2,0.5,0.3,1,0.3,1.5c0,2.5-2,4.5-4.5,4.5c-1.4,0-2.6-0.6-3.4-1.6l0,0
			c-0.8,1-2.1,1.6-3.5,1.6C27,71,25,69,25,66.5c0-2.8,2.3-4.5,4.5-4.5c2,0,3.7,1.2,4.3,3H40.7z M37,10c0-3.3-2.7-6-6-6s-6,2.7-6,6
			s6,12,6,12S37,13.3,37,10z M61,10c0-3.3-2.7-6-6-6s-6,2.7-6,6s6,12,6,12S61,13.3,61,10z M79,4c-3.3,0-6,2.7-6,6s6,12,6,12
			s6-8.7,6-12S82.3,4,79,4z M65.8,65.1c-0.6-1.8-2.3-3.1-4.3-3.1c-2.1,0-4.5,1.8-4.5,4.5c0,2.5,2,4.5,4.5,4.5c1.4,0,2.7-0.6,3.5-1.6
			l0.1,0c0.8,1,2.1,1.6,3.4,1.6c2.5,0,4.5-2,4.5-4.5c0-0.5-0.1-1-0.3-1.5L65.8,65.1z M72,54l-3.2-10H51v10H72z"/>
	</g>
	<path stroke-width="var(--icon-edge-width)" d="M21,59v6h4 M69,58h7 M51,36v23H20V36h41v8 M34,65h23 M66,65h10v-7v-0.1L72,54l-3.2-10H51
		 M51,54h21 M69,65v-7v-0.1L65,54l-3-10 M25,66.5c0,2.5,2,4.5,4.5,4.5s4.5-2,4.5-4.5S32,62,29.5,62S25,64,25,66.5z M33,69.4
		c0.8,1,2.1,1.6,3.4,1.6c2.5,0,4.5-2,4.5-4.5c0-0.5-0.1-1-0.3-1.5 M65.1,69.4c0.8,1,2.1,1.6,3.4,1.6c2.5,0,4.5-2,4.5-4.5
		c0-0.5-0.1-1-0.3-1.5 M57,66.5c0,2.5,2,4.5,4.5,4.5s4.5-2,4.5-4.5S64,62,61.5,62S57,64,57,66.5z M82,82c0,1.1-0.9,2-2,2s-2-0.9-2-2
		s0.9-2,2-2S82,80.9,82,82z M80,76c-3.3,0-6,2.7-6,6s6,12,6,12s6-8.7,6-12S83.3,76,80,76z M31,4c-3.3,0-6,2.7-6,6s6,12,6,12
		s6-8.7,6-12S34.3,4,31,4z M55,4c-3.3,0-6,2.7-6,6s6,12,6,12s6-8.7,6-12S58.3,4,55,4z M79,4c-3.3,0-6,2.7-6,6s6,12,6,12s6-8.7,6-12
		S82.3,4,79,4z"/>
	<path stroke-width="2px" d="M14.5,87.7c-0.6-1.5-0.9-3.1-0.9-4.7c0-1.1,0.1-2.1,0.4-3.1 M21.9,71.6
		c-2.7,0.8-4.9,2.5-6.3,4.6 M16.7,91.1c1.7,1.9,4.1,3.2,6.9,3.7 M36,95h-8 M60,95h-8 M48,95h-8 M72,95h-8 M84,95h-8 M81.3,52
		c-1.5-2.1-3.8-3.7-6.4-4.5 M16.2,42.6c1,1.2,2.3,2.3,3.8,3 M22.6,23.4c-2.7,0.7-5,2.2-6.6,4.3 M14.2,31.3c-0.4,1.2-0.6,2.4-0.6,3.8
		c0,1.4,0.3,2.8,0.7,4.1 M63,23h8 M27,23h8 M51,23h8 M39,23h8 M75,23h8 M74.6,70.7c2.8-0.6,5.1-2.1,6.7-4.1 M83.3,63.1
		c0.4-1.3,0.7-2.7,0.7-4.1c0-1.3-0.2-2.6-0.6-3.8 M47,71H36.4H36 M62,71h-0.5H51"
		/>


</g>
</defs>
</svg>
