<svg version="1.1" xmlns="http://www.w3.org/2000/svg" xmlns:xlink="http://www.w3.org/1999/xlink">
	<defs>
<g id="ill">
	<g>
		<path class="svg-white" fill="hsla(var(--icon-primary-color), 0.2)" d="M56,57H41c-1.7,0-3,1.3-3,3v32c0,1.7,1.3,3,3,3h15c1.7,0,3-1.3,3-3V60C59,58.3,57.7,57,56,57z M19,57H4
	c-1.7,0-3,1.3-3,3v32c0,1.7,1.3,3,3,3h15c1.7,0,3-1.3,3-3V60C22,58.3,20.6,57,19,57z M92,57H77c-1.7,0-3,1.3-3,3v32c0,1.7,1.3,3,3,3
	h15c1.7,0,3-1.3,3-3V60C95,58.3,93.7,57,92,57z"/>
		<path fill="hsla(var(--icon-primary-color), 0.7)" d="M77,1H15c-2.2,0-4,1.9-4,4.1V9c0,2.3,1.7,4,4,4c-2.3,0-4,1.7-4,4v4c0,2.3,1.7,4,4,4c-2.3,0-4,1.7-4,4v4
		c0,2.3,1.7,4,4,4h62c2.2,0,4-1.8,4-4V5C81,2.8,79.2,1,77,1z"/>
		<path fill="hsl(var(--icon-primary-color))" d="M69,9.9V5.1C69,2.8,67.2,1,64.9,1H15.1C12.8,1,11,2.8,11,5.1v4.8c0,2.3,1.7,3.1,4,3.1
			c-2.3,0-4,1.7-4,4v4c0,2.3,1.7,4,4,4c-2.3,0-4,1.7-4,4v4c0,2.3,1.7,4,4,4h50c2.3,0,4-1.7,4-4v-4c0-2.3-1.7-4-4-4c2.3,0,4-1.7,4-4
			v-4c0-2.3-1.7-4-4-4C67.3,13,69,12.1,69,9.9z"/>
		<path fill="hsl(var(--icon-secondary-color))"  d="M59,88v3.7c0,1.8-1.5,3.3-3.3,3.3H41c-1.8,0-3-1.5-3-3.3V88H59z M49.5,91.8
			c0-0.7-0.5-1.2-1.2-1.2c-0.7,0-1.2,0.5-1.2,1.2c0,0.7,0.5,1.2,1.2,1.2C49,93,49.5,92.5,49.5,91.8z M55.7,57H41c-1.8,0-3,1.9-3,3.7
			V64h21v-3.3C59,58.9,57.5,57,55.7,57z M95,88v3.7c0,1.8-1.5,3.3-3.3,3.3H77c-1.8,0-3-1.5-3-3.3V88H95z M85.5,91.8
			c0-0.7-0.5-1.2-1.2-1.2c-0.7,0-1.2,0.5-1.2,1.2c0,0.7,0.5,1.2,1.2,1.2C85,93,85.5,92.5,85.5,91.8z M91.7,57H77c-1.8,0-3,1.9-3,3.7
			V64h21v-3.3C95,58.9,93.5,57,91.7,57z M22,88v3.7c0,1.8-1.2,3.3-3,3.3H4.3C2.5,95,1,93.5,1,91.7V88H22z M12.9,91.8
			c0-0.7-0.5-1.2-1.2-1.2c-0.7,0-1.2,0.5-1.2,1.2c0,0.7,0.5,1.2,1.2,1.2C12.4,93,12.9,92.5,12.9,91.8z M19,57H4.3
			C2.5,57,1,58.9,1,60.7V64h21v-3.3C22,58.9,20.8,57,19,57z"/>
	</g>
	<path stroke-width="var(--icon-line-width)" d="M59.6,5c-1.1,0-2,0.9-2,2s0.9,2,2,2c1.1,0,2-0.9,2-2S60.7,5,59.6,5z M48,7h6 M43,5v4 M36,5v4 M29,5
		v4 M22,5v4 M15,5v4 M80,61h9 M44,61h9 M7,61h9 M84,57v-4.3c0-2.7-1.9-4.7-4.6-4.7H16.5c-2.7,0-4.5,2-4.5,4.7V57 M48,57V37 M59.6,17
		c-1.1,0-2,0.9-2,2s0.9,2,2,2c1.1,0,2-0.9,2-2S60.7,17,59.6,17z M48,19h6 M43,17v4 M36,17v4 M29,17v4 M22,17v4 M15,17v4 M59.6,29
		c-1.1,0-2,0.9-2,2c0,1.1,0.9,2,2,2c1.1,0,2-0.9,2-2C61.6,29.9,60.7,29,59.6,29z M48,31h6 M43,29v4 M36,29v4 M29,29v4 M22,29v4
		 M15,29v4"/>
	<path stroke-width="2px" d="M15,1h62c2.2,0,4,1.8,4,4v28c0,2.2-1.8,4-4,4H59 M69,5.1C69,2.8,67.2,1,64.9,1H15.1
		C12.8,1,11,2.8,11,5.1V9c0,2.3,1.7,4,4,4h50c2.3,0,4-1.7,4-4V5.1z M69,17.1c0-2.3-1.8-4.1-4.1-4.1H15.1c-2.3,0-4.1,1.8-4.1,4.1V21
		c0,2.3,1.7,4,4,4h50c2.3,0,4-1.7,4-4V17.1z M69,29.1c0-2.3-1.8-4.1-4.1-4.1H15.1c-2.3,0-4.1,1.8-4.1,4.1V33c0,2.3,1.7,4,4,4h50
		c2.3,0,4-1.7,4-4V29.1z M95,64v-3.3c0-1.8-1.5-3.7-3.3-3.7H77c-1.8,0-3,1.9-3,3.7V64v24.5v3.3c0,1.8,1.2,3.3,3,3.3h14.7
		c1.8,0,3.3-1.5,3.3-3.3v-3.3V64z M95,64H74 M95,88H74 M84.3,90.6c-0.7,0-1.2,0.5-1.2,1.2c0,0.7,0.5,1.2,1.2,1.2
		c0.7,0,1.2-0.5,1.2-1.2C85.5,91.1,85,90.6,84.3,90.6z M59,64v-3.3c0-1.8-1.5-3.7-3.3-3.7H41c-1.8,0-3,1.9-3,3.7V64v24.5v3.3
		c0,1.8,1.2,3.3,3,3.3h14.7c1.8,0,3.3-1.5,3.3-3.3v-3.3V64z M59,64H38 M59,88H38 M48.3,90.6c-0.7,0-1.2,0.5-1.2,1.2
		c0,0.7,0.5,1.2,1.2,1.2c0.7,0,1.2-0.5,1.2-1.2C49.5,91.1,49,90.6,48.3,90.6z M22,64v-3.3c0-1.8-1.2-3.7-3-3.7H4.3
		C2.5,57,1,58.9,1,60.7V64v24.5v3.3C1,93.5,2.5,95,4.3,95H19c1.8,0,3-1.5,3-3.3v-3.3V64z M22,64H1 M22,88H1 M11.7,90.6
		c-0.7,0-1.2,0.5-1.2,1.2c0,0.7,0.5,1.2,1.2,1.2c0.7,0,1.2-0.5,1.2-1.2C12.9,91.1,12.4,90.6,11.7,90.6z"/>
</g>
</defs>
</svg>
