<svg version="1.1" xmlns="http://www.w3.org/2000/svg" xmlns:xlink="http://www.w3.org/1999/xlink">
<defs>
<g id="ill">
	<g>
		<path fill="hsl(var(--icon-secondary-color))" d="M75.5,36.6c-4.2,9.6-7.8,19.2-10,29.4c0,0,0,0,0,0c-0.5,0-1,0-1.5,0h0
			c-0.2-1-0.7-1.5-1.4-2.1l0,0c2.1-1.6,2.7-5.6,0-7.5c0.3-0.3,0.6-0.6,0.9-1c1.2-1.9,0.9-4.7-0.9-6.1c-0.2-0.2-0.4-0.3-0.6-0.4l0,0
			c0.5-0.4,0.9-1,1.1-1.8c0.7-2.1-0.2-4.7-2.3-5.7c0.3-0.3,0.5-0.6,0.7-1c0.8-1.6,0.5-3.6-0.5-5c2-5.8,3.1-10.8,2.3-14.6
			c6.7,4.8,8.5,11.7,6.1,19.4C71.1,38.7,73.2,37.3,75.5,36.6z M64,71.5L64,71.5c1,0.1,1.3,0.1,1.9,0.2l0.1,0
			c0.8-1.7,2.3-3.3,4.9-4.8C69.1,66.3,67,66,65.2,66C64.8,67.8,65,69.7,64,71.5z M86,76.9c2.9-1.2,5.8-2.3,8.8-3.4
			c-0.9-2.6-2.2-5-3.7-7.3c-2.5,1.6-5,3.2-7.5,4.8c1.5-1.2,3-2.5,4.5-3.9c-1.6-1.5-3.4-2.8-5.3-3.9C79.8,67.3,72,75,72,75
			c2.9,2.8,3.8,6.4,4,9c5.6-1.4,11-2,16.4-2c0.3-2.2,0.2-4.4-0.1-6.6C90.2,75.8,88.1,76.3,86,76.9z M46.4,28.5L46.4,28.5
			C47.1,27.8,48,27,49,27h0c-0.5-1-0.4-2.6,0.4-3.8c1.4-2,4.2-2.5,6-0.9c1.4,1.2,1.9,3.1,1.2,4.7l0,0c0.6,0.2,1.1,0.5,1.6,0.9
			c-1.4-5.8-3.4-11-5.9-15.2C49.9,17,47.8,22.4,46.4,28.5z M30,35.5c-3-1.3-6.2-1.1-8.9,0.2c1,2.8,3.1,5.3,6.1,6.5
			c3,1.3,6.1,1.1,8.8-0.2C35,39.2,33,36.7,30,35.5z M47.7,63.6c-1-2.3-2-4.1-3.7-5.6c-2.6-2.2-5.3-3.2-9.2-2.8
			c7.2,7.2,5.3,15.8,4.8,24.9c2.9-1,5.8-2.1,8.7-3.3c0.8-0.3,1.7-0.7,2.5-1.1c-0.4-2.3-0.8-4.8-1.5-7.2C49,66.8,48.4,65.2,47.7,63.6
			z"/>
		<path fill="hsla(var(--icon-primary-color), 0.7)" d="M44,58c-3.1-2.5-5.4-3.1-9.2-2.8c7.2,7.2,5.3,15.8,4.8,24.9c-5,1.8-10,3.4-15,4.9
			c-2.9,0.9-5.9,1.8-8.9,2.7l-0.1-0.2c-3.5-5.2-2-12.3,1.4-17c1.8-2.5,4.5-3.9,6.3-6.2c1.9-2.4,1.8-4.9,1.7-7.8
			c-0.2-5.2,4.1-9.4,9.2-9.5c0.2,0,0.3,0,0.5,0c2.7,0.1,5.3,1.3,7.1,3.4C42.4,50.9,43.6,53.3,44,58z"/>
		<path fill="hsla(var(--icon-primary-color), 0.2)" d="M65.5,66c-0.5,0-1,0-1.5,0h0c-0.2-1-0.7-1.5-1.4-2.1l0,0c2.1-1.6,2.7-5.6,0-7.4
			c0.3-0.3,0.6-0.6,0.9-1c1.2-1.9,0.9-4.7-0.9-6.1c-0.2-0.2-0.4-0.3-0.6-0.4l0,0c0.5-0.4,0.9-1,1.1-1.8c0.7-2.1-0.2-4.7-2.3-5.7
			c0.3-0.3,0.5-0.6,0.7-1c0.8-1.6,0.5-3.6-0.5-5c-0.5-0.6-1-1-1.8-1.3c0.4-0.6,0.7-1.2,0.8-1.9c0.3-1.6-0.4-3.4-1.6-4.5
			c-0.5-0.4-1-0.7-1.6-0.9l0,0c0.7-1.6,0.2-3.5-1.2-4.7c-1.9-1.6-4.7-1.1-6,0.9c-0.8,1.2-0.9,2.8-0.4,3.8h0c-1.1,0-2,0.8-2.6,1.6
			c-0.7,0.9-1.1,2.1-1,3.2c0,1,0.3,1.8,0.9,2.4l0,0c-2.1,0.9-3.1,3.4-2.6,5.6c0.2,0.7,0.5,1.3,0.9,1.7c-2.2,1.1-3,3.9-2.1,6.1
			c0.2,0.5,0.6,1,1,1.3l0,0c-0.6,0.3-1.1,0.9-1.5,1.5l0,0C43.6,52.7,44,58,44,58c1.7,1.5,2.7,3.3,3.8,5.6c0.7,1.6,1.2,3.2,1.7,4.9
			c0.7,2.5,1.2,5.2,1.5,7.5c4.3-1.9,9.8-4.4,13-4.4C64.8,70,65.1,67.8,65.5,66C65.5,66,65.5,66,65.5,66z"/>
		<path fill="hsl(var(--icon-primary-color))" d="M50.9,75.8c4.3-1.9,9-4.2,13.5-4.2c0.6,0,1.1,0,1.7,0.1c0.9,0.1,3.2,0.8,5.9,3.3
			c3.4,3.2,3.9,7.2,4,9c0.4,5.3-5.7,9-10.8,9.9c-4.7,0.8-9.5,1-14.4,1.1c-2.5,0-4.9,0-7.3,0c-7.1,0-14.2-0.4-21.2-1.1
			c-3.6-0.3-7.2-0.8-10.8-1.3C8.1,92.2,4.4,91,1,91c4.9-0.5,9.9-1.8,14.8-3.3c3-0.9,6-1.8,8.9-2.7c5-1.5,10.1-3.1,15-4.9
			c2.9-1,5.8-2.1,8.7-3.3C49.2,76.5,50.1,76.2,50.9,75.8z"/>
	</g>
	<path stroke-width="var(--icon-edge-width)" d="M15.7,87.6c-3.5-5.1-2-12.3,1.4-17c1.8-2.5,4.5-3.9,6.3-6.2c1.9-2.4,1.8-4.9,1.7-7.8
		c-0.2-5.4,4.4-9.6,9.7-9.5c2.9,0.1,5.6,1.5,7.4,3.8c1.7,2.3,1.7,4.3,1.7,6.9 M21.1,35.7c1,2.8,3.1,5.3,6.1,6.5s6.1,1.1,8.8-0.2
		c-1-2.8-3-5.3-6-6.5S23.8,34.4,21.1,35.7z M58.3,27.9c-1.4-5.8-3.4-11-5.9-15.2c-2.5,4.4-4.6,9.7-6,15.8 M69.2,40.5
		c2.4-7.8,0.7-14.7-6.1-19.6c0.8,3.8-0.3,8.9-2.3,14.6 M64.4,71.5c2-12.2,6.1-23.6,11.1-34.9c-5.8,1.9-10.3,7.6-13,12.8 M56.1,68.9
		c0.8,2.5,3.8,3.9,6.1,2.3c2.4-1.6,2.6-5.5,0.3-7.3 M62.5,56.5c4.1,2.8,0.7,10.2-4.1,7.7c-1-0.5-1.7-1.4-2-2.5 M62,49
		c2.2,1.2,2.8,4.4,1.4,6.5c-1.8,2.9-5.7,2-7.1-0.8 M60.4,41.4c2.3,0.8,3.4,3.6,2.7,5.8c-1,3.2-4.9,3.7-7,1.3 M59.1,34.2
		c2.4,0.9,3.5,4,2.3,6.3c-1.1,2.2-3.7,3-5.8,1.6 M56.7,27c2.2,0.7,3.6,3.1,3.2,5.3c-0.2,1.1-0.8,2.2-1.7,2.8c-0.9,0.6-2,0.5-3,0.5
		 M49.1,61.2c-0.2,1-0.8,2-1.6,2.6 M49.2,54.5c-1,2.5-4.2,3.7-6.4,1.9 M41.9,50.5c0.4-0.6,0.9-1.1,1.5-1.5 M49.5,48.2
		c-1.8,2.6-5.8,2.3-7-0.6c-0.9-2.2-0.1-5,2.1-6.1 M50,42c-2.3,1.8-5.7,0.7-6.3-2.1c-0.5-2.2,0.5-4.7,2.6-5.6 M50.8,35.5
		c-2.7,1-5.3-0.9-5.4-3.7c0-2.2,1.3-4.5,3.6-4.9 M55.3,62.9c2.1,1.4,2.3,4.6,0.5,6.4c-1.8,1.8-5,1.4-6.4-0.7 M55.3,56.1
		c3.2,2.2,1.6,7.5-2.3,7.5c-3.9,0-5.6-5.3-2.4-7.5 M55.3,49.3c3.3,2.3,1.5,7.8-2.6,7.5c-3.8-0.2-5.3-5.3-2.1-7.5 M55.3,42.5
		c3.1,2.2,1.7,7.5-2.3,7.5c-4,0-5.7-5.2-2.4-7.5 M55.2,35.6c3.2,2.3,1.5,7.8-2.6,7.5c-4-0.2-5.2-5.6-1.9-7.7 M55.3,28.8
		c3.8,2.6,0.9,8.6-3.5,7.4c-3.2-0.9-4-5.4-1.2-7.4 M50.3,28.7c0.1,0.1,0.3,0.2,0.4,0.3c-1.9-1.4-2.6-3.8-1.3-5.8
		c1.4-2,4.2-2.4,6-0.9c1.7,1.4,2,4.1,0.5,5.8c-1.4,1.6-3.8,2-5.5,0.8 M66.1,71.7c0.8-1.7,2.2-3.3,4.8-4.9c-1.8-0.5-3.7-0.8-5.5-0.8
		c-0.5,0-1,0-1.6,0.1 M51,76.2c-1.4-9.1-4.3-22.2-16.1-21.1c7.2,7.2,5.3,15.8,4.8,25 M75.7,84.1c5.6-1.4,11.2-2.1,16.6-2.1
		c0.3-2.2,0.3-4.4,0-6.6c-2.2,0.4-4.3,0.9-6.4,1.5 M74,77c3.2-1.9,6.7-3.7,9.6-6c1.6-1.2,3.1-2.5,4.5-3.9c-1.6-1.5-3.4-2.8-5.3-3.9
		c-3,4.1-6.5,8-10.6,11.4 M75.7,81c3.4-1.3,6.8-2.7,10.2-4c0,0,0,0,0,0c2.9-1.2,5.8-2.3,8.8-3.4c-0.9-2.6-2.2-5-3.7-7.3
		c-2.5,1.6-5,3.2-7.5,4.8c-3.1,2-6.4,4-9.6,6 M68.8,72.4c-6.7-2.8-14.3,2-20.4,4.4c-7.8,3-15.7,5.8-23.7,8.2
		C17.1,87.3,8.9,90.1,1,91c3.4,0,7.1,1.2,10.5,1.7c3.6,0.5,7.2,0.9,10.8,1.3c7.1,0.7,14.2,1,21.2,1c7.1,0,14.6,0.1,21.7-1.1
		c5.1-0.9,10-4.5,10.8-9.9C76.4,81,74.4,74.8,68.8,72.4z"/>
	<path stroke-width="2px" d="M35,47c0-2.5,4.1-8.4-0.7-14.7 M37.2,81.2l0.6,4 M45.7,89L45,84.9 M56,78l0.7,4.1 M61,86
		l0.7,4.1 M65,76.9l0.7,4.1 M30.4,91.8l-0.6-4.1 M47,95h47"/>
</g>
</defs>
</svg>
