
<svg version="1.1" xmlns="http://www.w3.org/2000/svg" xmlns:xlink="http://www.w3.org/1999/xlink">

<g id="ill">
	<g>
		<path class="svg-secondary" fill="hsl(var(--icon-secondary-color))" d="M30,86.5c0,2.1-0.8,4-2,5.5c-1.6,1.8-3.9,3-6.5,3s-4.9-1.2-6.5-3c-1.3-1.5-2-3.4-2-5.5c0-4.7,3.8-8.5,8.5-8.5
			S30,81.8,30,86.5z M71,78.4c-0.8-0.3-1.6-0.4-2.5-0.4c-3.1,0-5.8,1.6-7.3,4.1c-0.8,1.3-1.2,2.8-1.2,4.4c0,2.1,0.8,4,2,5.5
			c1.6,1.8,3.9,3,6.5,3s4.9-1.2,6.5-3c1.3-1.5,2-3.4,2-5.5C77,82.7,74.5,79.5,71,78.4z M7,60l6.9,9.8l2.1-2.9L11,60H7z"/>
		<path class="svg-primary" fill="hsl(var(--icon-primary-color))" d="M95,92H75l0,0c1.3-1.5,2-3.4,2-5.5c0-3.8-2.5-7-6-8.1l0.4-1.1L85,82c2.5,1,5,2.1,6.9,3.6S95,89.2,95,92z
			 M29,68v-5l0.1-0.2L21,60l-5,6.9l-2.1,2.9L5,82v10h10l0,0c-1.3-1.5-2-3.4-2-5.5c0-4.7,3.8-8.5,8.5-8.5s8.5,3.8,8.5,8.5
			c0,2.1-0.8,4-2,5.5l0,0h34l0,0c-1.3-1.5-2-3.4-2-5.5c0-1.6,0.5-3.1,1.2-4.4c1.5-2.5,4.2-4.1,7.3-4.1H39C33.5,78,29,73.5,29,68z"/>
		<path class="svg-white" fill="hsla(var(--icon-primary-color), 0.2)" d="M68.5,78H39c-5.5,0-10-4.5-10-10v-5l0.1-0.2l42.3,14.5L71,78.4C70.2,78.1,69.4,78,68.5,78z M12,23.5
			c0,0.8,0.7,1.5,1.5,1.5s1.5-0.7,1.5-1.5S14.3,22,13.5,22S12,22.7,12,23.5z M32,23.5c0,3,2.5,5.5,5.5,5.5s5.5-2.5,5.5-5.5
			S40.5,18,37.5,18S32,20.5,32,23.5z M21,23.5c0,1.4,1.1,2.5,2.5,2.5s2.5-1.1,2.5-2.5S24.9,21,23.5,21S21,22.1,21,23.5z M5,23.5
			C5,23.8,5.2,24,5.5,24S6,23.8,6,23.5S5.8,23,5.5,23S5,23.2,5,23.5z"/>
	</g>
	<path id="line" stroke-width="2px" d="M45,78v-5 M49,73h-8 M32,5v8 M36,9h-8 M33.5,9c0,0.7-0.7,1.5-1.5,1.5S30.5,9.8,30.5,9
		s0.6-1.5,1.5-1.5C32.8,7.5,33.5,8.1,33.5,9z M37.1,43v8 M60,47H33.1 M38.6,47c0,0.7-0.7,1.5-1.5,1.5s-1.5-0.7-1.5-1.5
		s0.6-1.5,1.5-1.5C37.9,45.5,38.6,46.1,38.6,47z M21,7c-1.1,0-2,0.9-2,2s0.9,2,2,2s2-0.9,2-2S22.1,7,21,7z M13,9H0 M49,37H23.6
		c-2.6,0-4.6,0.6-6.4,2.4c-3,3-3,7.8,0,10.8c2.4,2.4,6.3,2.4,8.7,0c1.9-1.9,1.9-5,0-6.9c-1.5-1.5-4.1-1.5-5.6,0
		c-1.2,1.2-1.2,3.2,0,4.4c1,1,2.6,1,3.6,0 M52,18c0,17.1,13.9,31,31,31 M11,60H0 M61,82H38c-2.9,0-6.2-1.3-8.1-3.4
		c-2.1-2.2-5.1-3.6-8.4-3.6s-6.3,1.4-8.4,3.6C11.2,80.7,8.5,82,5.6,82H5"/>
	<path stroke-width="var(--icon-edge-width)" d="M16,67l-5-7H7l7,10 M75,92h20l0,0c0-5.5-5-8.1-10-10L21,60L5,82v10h10 M62,92H28 M21.5,78
		c-4.7,0-8.5,3.8-8.5,8.5s3.8,8.5,8.5,8.5s8.5-3.8,8.5-8.5S26.2,78,21.5,78z M68.5,78c-4.7,0-8.5,3.8-8.5,8.5s3.8,8.5,8.5,8.5
		s8.5-3.8,8.5-8.5S73.2,78,68.5,78z M29,63v5c0,5.5,4.5,10,10,10h30 M5.5,23C5.2,23,5,23.2,5,23.5S5.2,24,5.5,24S6,23.8,6,23.5
		S5.8,23,5.5,23z M13.5,22c-0.8,0-1.5,0.7-1.5,1.5s0.7,1.5,1.5,1.5s1.5-0.7,1.5-1.5S14.3,22,13.5,22z M23.5,21
		c-1.4,0-2.5,1.1-2.5,2.5s1.1,2.5,2.5,2.5s2.5-1.1,2.5-2.5S24.9,21,23.5,21z M37.5,18c-3,0-5.5,2.5-5.5,5.5s2.5,5.5,5.5,5.5
		s5.5-2.5,5.5-5.5S40.5,18,37.5,18z"/>
</g>
</svg>
